  0
SECTION
  2
HEADER
  9
$ACADVER
  1
AC1009
  9
$DWGCODEPAGE
  3
ansi_1252
  9
$INSBASE
 10
0.0
 20
0.0
 30
0.0
  9
$EXTMIN
 10
-10.0
 20
-10.00000000000001
 30
-0.000000000000007
  9
$EXTMAX
 10
245.0
 20
115.0
 30
0.0000000000000006
  9
$LIMMIN
 10
0.0
 20
0.0
  9
$LIMMAX
 10
420.0
 20
297.0
  9
$ORTHOMODE
 70
     0
  9
$REGENMODE
 70
     1
  9
$FILLMODE
 70
     1
  9
$QTEXTMODE
 70
     0
  9
$MIRRTEXT
 70
     1
  9
$DRAGMODE
 70
     2
  9
$LTSCALE
 40
1.0
  9
$OSMODE
 70
    37
  9
$ATTMODE
 70
     1
  9
$TEXTSIZE
 40
2.5
  9
$TRACEWID
 40
1.0
  9
$TEXTSTYLE
  7
STANDARD
  9
$CLAYER
  8
0
  9
$CELTYPE
  6
BYLAYER
  9
$CECOLOR
 62
   256
  9
$DIMSCALE
 40
1.0
  9
$DIMASZ
 40
2.5
  9
$DIMEXO
 40
0.625
  9
$DIMDLI
 40
3.75
  9
$DIMRND
 40
0.0
  9
$DIMDLE
 40
0.0
  9
$DIMEXE
 40
1.25
  9
$DIMTP
 40
0.0
  9
$DIMTM
 40
0.0
  9
$DIMTXT
 40
2.5
  9
$DIMCEN
 40
2.5
  9
$DIMTSZ
 40
0.0
  9
$DIMTOL
 70
     0
  9
$DIMLIM
 70
     0
  9
$DIMTIH
 70
     1
  9
$DIMTOH
 70
     0
  9
$DIMSE1
 70
     0
  9
$DIMSE2
 70
     0
  9
$DIMTAD
 70
     1
  9
$DIMZIN
 70
     8
  9
$DIMBLK
  1

  9
$DIMASO
 70
     1
  9
$DIMSHO
 70
     1
  9
$DIMPOST
  1
mm
  9
$DIMAPOST
  1

  9
$DIMALT
 70
     0
  9
$DIMALTD
 70
     3
  9
$DIMALTF
 40
0.0393700787401575
  9
$DIMLFAC
 40
1.0
  9
$DIMTOFL
 70
     1
  9
$DIMTVP
 40
0.0
  9
$DIMTIX
 70
     0
  9
$DIMSOXD
 70
     0
  9
$DIMSAH
 70
     0
  9
$DIMBLK1
  1

  9
$DIMBLK2
  1

  9
$DIMSTYLE
  2
ISO-25
  9
$DIMCLRD
 70
     0
  9
$DIMCLRE
 70
     0
  9
$DIMCLRT
 70
     0
  9
$DIMTFAC
 40
1.0
  9
$DIMGAP
 40
0.625
  9
$LUNITS
 70
     2
  9
$LUPREC
 70
     4
  9
$SKETCHINC
 40
1.0
  9
$FILLETRAD
 40
10.0
  9
$AUNITS
 70
     0
  9
$AUPREC
 70
     0
  9
$MENU
  1
.
  9
$ELEVATION
 40
0.0
  9
$PELEVATION
 40
0.0
  9
$THICKNESS
 40
0.0
  9
$LIMCHECK
 70
     0
  9
$CHAMFERA
 40
0.0
  9
$CHAMFERB
 40
0.0
  9
$SKPOLY
 70
     0
  9
$TDCREATE
 40
2459423.383196898
  9
$TDUPDATE
 40
2459423.383197407
  9
$TDINDWG
 40
0.0000000116
  9
$TDUSRTIMER
 40
0.0000000116
  9
$USRTIMER
 70
     1
  9
$ANGBASE
 50
0.0
  9
$ANGDIR
 70
     0
  9
$PDMODE
 70
     0
  9
$PDSIZE
 40
0.0
  9
$PLINEWID
 40
0.0
  9
$COORDS
 70
     1
  9
$SPLFRAME
 70
     0
  9
$SPLINETYPE
 70
     6
  9
$SPLINESEGS
 70
     8
  9
$ATTDIA
 70
     0
  9
$ATTREQ
 70
     1
  9
$HANDLING
 70
     1
  9
$HANDSEED
  5
142
  9
$SURFTAB1
 70
     6
  9
$SURFTAB2
 70
     6
  9
$SURFTYPE
 70
     6
  9
$SURFU
 70
     6
  9
$SURFV
 70
     6
  9
$UCSNAME
  2

  9
$UCSORG
 10
0.0
 20
0.0
 30
0.0
  9
$UCSXDIR
 10
1.0
 20
0.0
 30
0.0
  9
$UCSYDIR
 10
0.0
 20
1.0
 30
0.0
  9
$PUCSNAME
  2

  9
$PUCSORG
 10
0.0
 20
0.0
 30
0.0
  9
$PUCSXDIR
 10
1.0
 20
0.0
 30
0.0
  9
$PUCSYDIR
 10
0.0
 20
1.0
 30
0.0
  9
$USERI1
 70
     0
  9
$USERI2
 70
     0
  9
$USERI3
 70
     0
  9
$USERI4
 70
     0
  9
$USERI5
 70
     0
  9
$USERR1
 40
0.0
  9
$USERR2
 40
0.0
  9
$USERR3
 40
0.0
  9
$USERR4
 40
0.0
  9
$USERR5
 40
0.0
  9
$WORLDVIEW
 70
     1
  9
$SHADEDGE
 70
     3
  9
$SHADEDIF
 70
    70
  9
$TILEMODE
 70
     1
  9
$MAXACTVP
 70
    64
  9
$PLIMCHECK
 70
     0
  9
$PEXTMIN
 10
1.000000000000000E+20
 20
1.000000000000000E+20
 30
1.000000000000000E+20
  9
$PEXTMAX
 10
-1.000000000000000E+20
 20
-1.000000000000000E+20
 30
-1.000000000000000E+20
  9
$PLIMMIN
 10
0.0
 20
0.0
  9
$PLIMMAX
 10
420.0
 20
297.0
  9
$UNITMODE
 70
     0
  9
$VISRETAIN
 70
     1
  9
$PLINEGEN
 70
     0
  9
$PSLTSCALE
 70
     1
  0
ENDSEC
  0
SECTION
  2
TABLES
  0
TABLE
  2
VPORT
 70
     1
  0
VPORT
  2
*ACTIVE
 70
     0
 10
0.0
 20
0.0
 11
1.0
 21
1.0
 12
117.5
 22
52.5
 13
0.0
 23
0.0
 14
10.0
 24
10.0
 15
10.0
 25
10.0
 16
0.0
 26
0.0
 36
1.0
 17
0.0
 27
0.0
 37
0.0
 40
125.0
 41
2.04
 42
50.0
 43
0.0
 44
0.0
 50
0.0
 51
0.0
 71
     0
 72
   100
 73
     1
 74
     3
 75
     0
 76
     0
 77
     0
 78
     0
  0
ENDTAB
  0
TABLE
  2
LTYPE
 70
     1
  0
LTYPE
  2
CONTINUOUS
 70
     0
  3
Solid line
 72
    65
 73
     0
 40
0.0
  0
ENDTAB
  0
TABLE
  2
LAYER
 70
     1
  0
LAYER
  2
0
 70
     0
 62
   253
  6
CONTINUOUS
  0
ENDTAB
  0
TABLE
  2
STYLE
 70
     1
  0
STYLE
  2
STANDARD
 70
     0
 40
0.0
 41
1.0
 50
0.0
 71
     0
 42
2.5
  3
txt
  4

  0
ENDTAB
  0
TABLE
  2
VIEW
 70
     0
  0
ENDTAB
  0
TABLE
  2
UCS
 70
     0
  0
ENDTAB
  0
TABLE
  2
APPID
 70
     1
  0
APPID
  2
ACAD
 70
     0
  0
ENDTAB
  0
TABLE
  2
DIMSTYLE
 70
     1
  0
DIMSTYLE
  2
ISO-25
 70
     0
  3

  4

  5

  6

  7

 40
1.0
 41
2.5
 42
0.625
 43
3.75
 44
1.25
 45
0.0
 46
0.0
 47
0.0
 48
0.0
140
2.5
141
2.5
142
0.0
143
0.03937007874016
144
1.0
145
0.0
146
1.0
147
0.625
 71
     0
 72
     0
 73
     0
 74
     0
 75
     0
 76
     0
 77
     1
 78
     8
170
     0
171
     3
172
     1
173
     0
174
     0
175
     0
176
     0
177
     0
178
     0
  0
ENDTAB
  0
ENDSEC
  0
SECTION
  2
BLOCKS
  0
BLOCK
  8
0
  2
$MODEL_SPACE
 70
     0
 10
0.0
 20
0.0
 30
0.0
  3
$MODEL_SPACE
  1

  0
ENDBLK
  5
21
  8
0
  0
BLOCK
 67
     1
  8
0
  2
$PAPER_SPACE
 70
     0
 10
0.0
 20
0.0
 30
0.0
  3
$PAPER_SPACE
  1

  0
ENDBLK
  5
1D
 67
     1
  8
0
  0
ENDSEC
  0
SECTION
  2
ENTITIES
  0
LINE
  5
6E
  8
0
 10
5.000000000000003
 20
83.25
 30
0.0
 11
5.000000000000001
 21
17.74999999999996
 31
0.0
  0
LINE
  5
6F
  8
0
 10
65.0
 20
21.74999999999996
 30
0.0
 11
65.0
 21
90.5
 31
0.0
  0
LINE
  5
70
  8
0
 10
215.0
 20
95.0
 30
0.0
 11
94.75
 21
95.0
 31
0.0
  0
LINE
  5
71
  8
0
 10
70.0
 20
70.25
 30
0.0
 11
70.0
 21
24.74999999999995
 31
0.0
  0
CIRCLE
  5
72
  8
0
 10
215.0
 20
12.99999999999996
 30
0.0
 40
1.75
  0
CIRCLE
  5
73
  8
0
 10
215.0
 20
82.00000000000001
 30
0.0
 40
1.75
  0
CIRCLE
  5
74
  8
0
 10
81.0
 20
82.0
 30
0.0
 40
1.75
  0
CIRCLE
  5
75
  8
0
 10
81.0
 20
12.99999999999996
 30
0.0
 40
1.75
  0
LINE
  5
76
  8
0
 10
89.75
 20
4.999999999999961
 30
0.0
 11
198.25
 21
4.99999999999996
 31
0.0
  0
CIRCLE
  5
77
  8
0
 10
11.00000000000001
 20
94.0
 30
0.0
 40
1.75
  0
CIRCLE
  5
78
  8
0
 10
59.00000000000001
 20
10.99999999999996
 30
0.0
 40
1.75
  0
CIRCLE
  5
79
  8
0
 10
10.99999999999999
 20
10.99999999999996
 30
0.0
 40
1.75
  0
LINE
  5
7A
  8
0
 10
55.49999999999999
 20
100.0
 30
0.0
 11
17.75000000000001
 21
100.0
 31
0.0
  0
LINE
  5
7B
  8
0
 10
6.750000000000003
 20
15.99999999999996
 30
0.0
 11
14.25
 21
15.99999999999996
 31
0.0
  0
LINE
  5
7C
  8
0
 10
16.0
 20
14.24999999999996
 30
0.0
 11
16.0
 21
6.749999999999963
 31
0.0
  0
LINE
  5
7D
  8
0
 10
63.25
 20
19.99999999999996
 30
0.0
 11
51.75000000000001
 21
19.99999999999996
 31
0.0
  0
LINE
  5
7E
  8
0
 10
50.0
 20
18.24999999999996
 30
0.0
 11
50.0
 21
6.749999999999972
 31
0.0
  0
LINE
  5
7F
  8
0
 10
63.25
 20
92.25
 30
0.0
 11
59.0
 21
92.25
 31
0.0
  0
LINE
  5
80
  8
0
 10
57.24999999999999
 20
94.0
 30
0.0
 11
57.24999999999999
 21
98.25
 31
0.0
  0
LINE
  5
81
  8
0
 10
6.750000000000004
 20
85.0
 30
0.0
 11
14.25000000000001
 21
85.0
 31
0.0
  0
LINE
  5
82
  8
0
 10
16.00000000000001
 20
86.75000000000001
 30
0.0
 11
16.00000000000001
 21
98.25
 31
0.0
  0
LINE
  5
83
  8
0
 10
230.0
 20
6.749999999999961
 30
0.0
 11
230.0
 21
12.99999999999996
 31
0.0
  0
LINE
  5
84
  8
0
 10
221.75
 20
4.999999999999959
 30
0.0
 11
228.25
 21
4.999999999999959
 31
0.0
  0
LINE
  5
85
  8
0
 10
220.0
 20
18.24999999999996
 30
0.0
 11
220.0
 21
6.749999999999957
 31
0.0
  0
LINE
  5
86
  8
0
 10
200.0
 20
6.749999999999962
 30
0.0
 11
200.0
 21
18.24999999999996
 31
0.0
  0
LINE
  5
87
  8
0
 10
201.75
 20
19.99999999999996
 30
0.0
 11
218.25
 21
19.99999999999996
 31
0.0
  0
LINE
  5
88
  8
0
 10
230.0
 20
93.25000000000001
 30
0.0
 11
230.0
 21
89.75
 31
0.0
  0
LINE
  5
89
  8
0
 10
228.25
 20
88.0
 30
0.0
 11
215.0
 21
88.0
 31
0.0
  0
LINE
  5
8A
  8
0
 10
215.0
 20
95.00000000000001
 30
0.0
 11
228.25
 21
95.00000000000001
 31
0.0
  0
LINE
  5
8B
  8
0
 10
228.25
 20
71.00000000000001
 30
0.0
 11
212.75
 21
71.00000000000001
 31
0.0
  0
LINE
  5
8C
  8
0
 10
211.0
 20
72.75000000000001
 30
0.0
 11
211.0
 21
86.25
 31
0.0
  0
LINE
  5
8D
  8
0
 10
212.75
 20
88.0
 30
0.0
 11
228.25
 21
88.0
 31
0.0
  0
LINE
  5
8E
  8
0
 10
71.75000000000001
 20
72.00000000000001
 30
0.0
 11
91.25
 21
72.00000000000001
 31
0.0
  0
LINE
  5
8F
  8
0
 10
93.0
 20
73.75000000000001
 30
0.0
 11
93.0
 21
93.25
 31
0.0
  0
LINE
  5
90
  8
0
 10
71.75000000000001
 20
22.99999999999995
 30
0.0
 11
86.25
 21
22.99999999999995
 31
0.0
  0
LINE
  5
91
  8
0
 10
88.0
 20
21.24999999999995
 30
0.0
 11
88.0
 21
6.749999999999961
 31
0.0
  0
LINE
  5
92
  8
0
 10
230.0
 20
12.99999999999996
 30
0.0
 11
230.0
 21
69.24999999999999
 31
0.0
  0
LINE
  5
93
  8
0
 10
17.75
 20
4.999999999999962
 30
0.0
 11
48.24999999999999
 21
4.999999999999962
 31
0.0
  0
LINE
  5
94
  8
0
 10
240.0
 20
24.99999999999999
 30
0.0
 11
240.0
 21
79.99999999999999
 31
0.0
  0
LINE
  5
95
  8
0
 10
240.0
 20
105.0
 30
0.0
 11
240.0
 21
110.0
 31
0.0
  0
CIRCLE
  5
96
  8
0
 10
235.0
 20
105.0
 30
0.0
 40
1.75
  0
CIRCLE
  5
97
  8
0
 10
235.0
 20
-0.0000000000000065
 30
0.0
 40
1.75
  0
CIRCLE
  5
98
  8
0
 10
0.0000000000000029
 20
105.0
 30
0.0
 40
1.75
  0
CIRCLE
  5
99
  8
0
 10
0.0
 20
0.0
 30
0.0
 40
1.75
  0
ARC
  5
9A
  8
0
 10
17.75000000000001
 20
98.25
 30
0.0
 40
1.750000000000002
 50
90.0
 51
180.0
  0
ARC
  5
9B
  8
0
 10
14.25000000000001
 20
86.75000000000001
 30
0.0
 40
1.75
 50
270.0
 51
360.0
  0
ARC
  5
9C
  8
0
 10
6.750000000000004
 20
83.25
 30
0.0
 40
1.750000000000002
 50
90.0
 51
180.0
  0
ARC
  5
9D
  8
0
 10
55.49999999999999
 20
98.25
 30
0.0
 40
1.750000000000002
 50
0.0
 51
90.0
  0
ARC
  5
9E
  8
0
 10
59.0
 20
94.0
 30
0.0
 40
1.750000000000002
 50
180.0
 51
270.0
  0
ARC
  5
9F
  8
0
 10
63.25
 20
90.5
 30
0.0
 40
1.750000000000002
 50
0.0
 51
90.0
  0
ARC
  5
A0
  8
0
 10
94.75
 20
93.25
 30
0.0
 40
1.750000000000002
 50
90.0
 51
180.0
  0
ARC
  5
A1
  8
0
 10
91.25
 20
73.75000000000001
 30
0.0
 40
1.750000000000002
 50
270.0
 51
360.0
  0
ARC
  5
A2
  8
0
 10
71.75000000000001
 20
70.25
 30
0.0
 40
1.750000000000002
 50
90.0
 51
180.0
  0
ARC
  5
A3
  8
0
 10
228.25
 20
93.25000000000001
 30
0.0
 40
1.750000000000002
 50
0.0
 51
90.0
  0
ARC
  5
A4
  8
0
 10
228.25
 20
89.75
 30
0.0
 40
1.750000000000002
 50
270.0
 51
360.0
  0
ARC
  5
A5
  8
0
 10
212.75
 20
86.25
 30
0.0
 40
1.750000000000002
 50
90.0
 51
180.0
  0
ARC
  5
A6
  8
0
 10
212.75
 20
72.75000000000001
 30
0.0
 40
1.750000000000002
 50
180.0
 51
270.0
  0
ARC
  5
A7
  8
0
 10
228.25
 20
69.25
 30
0.0
 40
1.750000000000002
 50
0.0
 51
90.0
  0
ARC
  5
A8
  8
0
 10
228.25
 20
6.749999999999961
 30
0.0
 40
1.750000000000002
 50
270.0
 51
360.0
  0
ARC
  5
A9
  8
0
 10
221.75
 20
6.749999999999958
 30
0.0
 40
1.749999999999999
 50
180.0
 51
270.0
  0
ARC
  5
AA
  8
0
 10
218.25
 20
18.24999999999996
 30
0.0
 40
1.750000000000002
 50
360.0
 51
90.0
  0
ARC
  5
AB
  8
0
 10
201.75
 20
18.24999999999996
 30
0.0
 40
1.750000000000002
 50
90.0
 51
180.0
  0
ARC
  5
AC
  8
0
 10
198.25
 20
6.749999999999962
 30
0.0
 40
1.750000000000002
 50
270.0
 51
360.0
  0
ARC
  5
AD
  8
0
 10
89.75
 20
6.749999999999962
 30
0.0
 40
1.750000000000001
 50
180.0
 51
270.0
  0
ARC
  5
AE
  8
0
 10
86.25
 20
21.24999999999995
 30
0.0
 40
1.750000000000002
 50
360.0
 51
90.0
  0
ARC
  5
AF
  8
0
 10
71.75000000000001
 20
24.74999999999995
 30
0.0
 40
1.750000000000002
 50
180.0
 51
270.0
  0
ARC
  5
B0
  8
0
 10
63.25
 20
21.74999999999996
 30
0.0
 40
1.750000000000002
 50
270.0
 51
360.0
  0
ARC
  5
B1
  8
0
 10
51.75000000000001
 20
18.24999999999996
 30
0.0
 40
1.750000000000002
 50
90.0
 51
180.0
  0
ARC
  5
B2
  8
0
 10
48.24999999999999
 20
6.749999999999971
 30
0.0
 40
1.750000000000008
 50
270.0
 51
360.0
  0
ARC
  5
B3
  8
0
 10
17.75
 20
6.749999999999962
 30
0.0
 40
1.75
 50
180.0
 51
270.0
  0
ARC
  5
B4
  8
0
 10
14.25
 20
14.24999999999996
 30
0.0
 40
1.75
 50
360.0
 51
90.0
  0
ARC
  5
B5
  8
0
 10
6.750000000000003
 20
17.74999999999996
 30
0.0
 40
1.750000000000002
 50
180.0
 51
270.0
  0
LINE
  5
B6
  8
0
 10
134.0
 20
63.0
 30
0.0
 11
134.0
 21
53.0
 31
0.0
  0
LINE
  5
B7
  8
0
 10
134.0
 20
52.99999999999999
 30
0.0
 11
144.0
 21
52.99999999999999
 31
0.0
  0
LINE
  5
B8
  8
0
 10
144.0
 20
52.99999999999999
 30
0.0
 11
144.0
 21
63.0
 31
0.0
  0
LINE
  5
B9
  8
0
 10
144.0
 20
63.0
 30
0.0
 11
134.0
 21
63.0
 31
0.0
  0
CIRCLE
  5
BA
  8
0
 10
139.0
 20
57.99999999999999
 30
0.0
 40
1.749999999999989
  0
LINE
  5
BB
  8
0
 10
146.85
 20
63.0
 30
0.0
 11
146.85
 21
53.0
 31
0.0
  0
LINE
  5
BC
  8
0
 10
146.85
 20
52.99999999999999
 30
0.0
 11
156.85
 21
52.99999999999999
 31
0.0
  0
LINE
  5
BD
  8
0
 10
156.85
 20
52.99999999999999
 30
0.0
 11
156.85
 21
63.0
 31
0.0
  0
LINE
  5
BE
  8
0
 10
156.85
 20
63.0
 30
0.0
 11
146.85
 21
63.0
 31
0.0
  0
CIRCLE
  5
BF
  8
0
 10
151.85
 20
57.99999999999999
 30
0.0
 40
1.749999999999989
  0
LINE
  5
C0
  8
0
 10
134.0
 20
49.03999999999999
 30
0.0
 11
134.0
 21
39.03999999999999
 31
0.0
  0
LINE
  5
C1
  8
0
 10
134.0
 20
39.03999999999999
 30
0.0
 11
144.0
 21
39.03999999999999
 31
0.0
  0
LINE
  5
C2
  8
0
 10
144.0
 20
39.03999999999999
 30
0.0
 11
144.0
 21
49.03999999999999
 31
0.0
  0
LINE
  5
C3
  8
0
 10
144.0
 20
49.03999999999999
 30
0.0
 11
134.0
 21
49.03999999999999
 31
0.0
  0
CIRCLE
  5
C4
  8
0
 10
139.0
 20
44.03999999999999
 30
0.0
 40
1.749999999999989
  0
LINE
  5
C5
  8
0
 10
146.85
 20
49.03999999999999
 30
0.0
 11
146.85
 21
39.03999999999999
 31
0.0
  0
LINE
  5
C6
  8
0
 10
146.85
 20
39.03999999999999
 30
0.0
 11
156.85
 21
39.03999999999999
 31
0.0
  0
LINE
  5
C7
  8
0
 10
156.85
 20
39.03999999999999
 30
0.0
 11
156.85
 21
49.03999999999999
 31
0.0
  0
LINE
  5
C8
  8
0
 10
156.85
 20
49.03999999999999
 30
0.0
 11
146.85
 21
49.03999999999999
 31
0.0
  0
CIRCLE
  5
C9
  8
0
 10
151.85
 20
44.03999999999999
 30
0.0
 40
1.749999999999989
  0
LINE
  5
CA
  8
0
 10
160.25
 20
63.0
 30
0.0
 11
160.25
 21
53.0
 31
0.0
  0
LINE
  5
CB
  8
0
 10
160.25
 20
52.99999999999999
 30
0.0
 11
170.25
 21
52.99999999999999
 31
0.0
  0
LINE
  5
CC
  8
0
 10
170.25
 20
52.99999999999999
 30
0.0
 11
170.25
 21
63.0
 31
0.0
  0
LINE
  5
CD
  8
0
 10
170.25
 20
63.0
 30
0.0
 11
160.25
 21
63.0
 31
0.0
  0
CIRCLE
  5
CE
  8
0
 10
165.25
 20
57.99999999999999
 30
0.0
 40
1.749999999999989
  0
LINE
  5
CF
  8
0
 10
173.1
 20
63.0
 30
0.0
 11
173.1
 21
53.0
 31
0.0
  0
LINE
  5
D0
  8
0
 10
173.1
 20
52.99999999999999
 30
0.0
 11
183.1
 21
52.99999999999999
 31
0.0
  0
LINE
  5
D1
  8
0
 10
183.1
 20
52.99999999999999
 30
0.0
 11
183.1
 21
63.0
 31
0.0
  0
LINE
  5
D2
  8
0
 10
183.1
 20
63.0
 30
0.0
 11
173.1
 21
63.0
 31
0.0
  0
CIRCLE
  5
D3
  8
0
 10
178.1
 20
57.99999999999999
 30
0.0
 40
1.749999999999989
  0
LINE
  5
D4
  8
0
 10
160.25
 20
49.03999999999999
 30
0.0
 11
160.25
 21
39.03999999999999
 31
0.0
  0
LINE
  5
D5
  8
0
 10
160.25
 20
39.03999999999999
 30
0.0
 11
170.25
 21
39.03999999999999
 31
0.0
  0
LINE
  5
D6
  8
0
 10
170.25
 20
39.03999999999999
 30
0.0
 11
170.25
 21
49.03999999999999
 31
0.0
  0
LINE
  5
D7
  8
0
 10
170.25
 20
49.03999999999999
 30
0.0
 11
160.25
 21
49.03999999999999
 31
0.0
  0
CIRCLE
  5
D8
  8
0
 10
165.25
 20
44.03999999999999
 30
0.0
 40
1.749999999999989
  0
LINE
  5
D9
  8
0
 10
173.1
 20
49.03999999999999
 30
0.0
 11
173.1
 21
39.03999999999999
 31
0.0
  0
LINE
  5
DA
  8
0
 10
173.1
 20
39.03999999999999
 30
0.0
 11
183.1
 21
39.03999999999999
 31
0.0
  0
LINE
  5
DB
  8
0
 10
183.1
 20
39.03999999999999
 30
0.0
 11
183.1
 21
49.03999999999999
 31
0.0
  0
LINE
  5
DC
  8
0
 10
183.1
 20
49.03999999999999
 30
0.0
 11
173.1
 21
49.03999999999999
 31
0.0
  0
CIRCLE
  5
DD
  8
0
 10
178.1
 20
44.03999999999999
 30
0.0
 40
1.749999999999989
  0
LINE
  5
DE
  8
0
 10
134.0
 20
88.7
 30
0.0
 11
134.0
 21
78.69999999999999
 31
0.0
  0
LINE
  5
DF
  8
0
 10
134.0
 20
78.69999999999999
 30
0.0
 11
144.0
 21
78.69999999999999
 31
0.0
  0
LINE
  5
E0
  8
0
 10
144.0
 20
78.69999999999999
 30
0.0
 11
144.0
 21
88.7
 31
0.0
  0
LINE
  5
E1
  8
0
 10
144.0
 20
88.7
 30
0.0
 11
134.0
 21
88.7
 31
0.0
  0
CIRCLE
  5
E2
  8
0
 10
139.0
 20
83.7
 30
0.0
 40
1.749999999999989
  0
LINE
  5
E3
  8
0
 10
146.85
 20
88.7
 30
0.0
 11
146.85
 21
78.69999999999999
 31
0.0
  0
LINE
  5
E4
  8
0
 10
146.85
 20
78.69999999999999
 30
0.0
 11
156.85
 21
78.69999999999999
 31
0.0
  0
LINE
  5
E5
  8
0
 10
156.85
 20
78.69999999999999
 30
0.0
 11
156.85
 21
88.7
 31
0.0
  0
LINE
  5
E6
  8
0
 10
156.85
 20
88.7
 30
0.0
 11
146.85
 21
88.7
 31
0.0
  0
CIRCLE
  5
E7
  8
0
 10
151.85
 20
83.7
 30
0.0
 40
1.749999999999989
  0
LINE
  5
E8
  8
0
 10
134.0
 20
74.74
 30
0.0
 11
134.0
 21
64.74
 31
0.0
  0
LINE
  5
E9
  8
0
 10
134.0
 20
64.74
 30
0.0
 11
144.0
 21
64.74
 31
0.0
  0
LINE
  5
EA
  8
0
 10
144.0
 20
64.74
 30
0.0
 11
144.0
 21
74.74
 31
0.0
  0
LINE
  5
EB
  8
0
 10
144.0
 20
74.74
 30
0.0
 11
134.0
 21
74.74
 31
0.0
  0
CIRCLE
  5
EC
  8
0
 10
139.0
 20
69.74
 30
0.0
 40
1.749999999999989
  0
LINE
  5
ED
  8
0
 10
146.85
 20
74.74
 30
0.0
 11
146.85
 21
64.74
 31
0.0
  0
LINE
  5
EE
  8
0
 10
146.85
 20
64.74
 30
0.0
 11
156.85
 21
64.74
 31
0.0
  0
LINE
  5
EF
  8
0
 10
156.85
 20
64.74
 30
0.0
 11
156.85
 21
74.74
 31
0.0
  0
LINE
  5
F0
  8
0
 10
156.85
 20
74.74
 30
0.0
 11
146.85
 21
74.74
 31
0.0
  0
CIRCLE
  5
F1
  8
0
 10
151.85
 20
69.74
 30
0.0
 40
1.749999999999989
  0
LINE
  5
F2
  8
0
 10
160.25
 20
88.7
 30
0.0
 11
160.25
 21
78.69999999999999
 31
0.0
  0
LINE
  5
F3
  8
0
 10
160.25
 20
78.69999999999999
 30
0.0
 11
170.25
 21
78.69999999999999
 31
0.0
  0
LINE
  5
F4
  8
0
 10
170.25
 20
78.69999999999999
 30
0.0
 11
170.25
 21
88.7
 31
0.0
  0
LINE
  5
F5
  8
0
 10
170.25
 20
88.7
 30
0.0
 11
160.25
 21
88.7
 31
0.0
  0
CIRCLE
  5
F6
  8
0
 10
165.25
 20
83.7
 30
0.0
 40
1.749999999999989
  0
LINE
  5
F7
  8
0
 10
173.1
 20
88.7
 30
0.0
 11
173.1
 21
78.69999999999999
 31
0.0
  0
LINE
  5
F8
  8
0
 10
173.1
 20
78.69999999999999
 30
0.0
 11
183.1
 21
78.69999999999999
 31
0.0
  0
LINE
  5
F9
  8
0
 10
183.1
 20
78.69999999999999
 30
0.0
 11
183.1
 21
88.7
 31
0.0
  0
LINE
  5
FA
  8
0
 10
183.1
 20
88.7
 30
0.0
 11
173.1
 21
88.7
 31
0.0
  0
CIRCLE
  5
FB
  8
0
 10
178.1
 20
83.7
 30
0.0
 40
1.749999999999989
  0
LINE
  5
FC
  8
0
 10
160.25
 20
74.74
 30
0.0
 11
160.25
 21
64.74
 31
0.0
  0
LINE
  5
FD
  8
0
 10
160.25
 20
64.74
 30
0.0
 11
170.25
 21
64.74
 31
0.0
  0
LINE
  5
FE
  8
0
 10
170.25
 20
64.74
 30
0.0
 11
170.25
 21
74.74
 31
0.0
  0
LINE
  5
FF
  8
0
 10
170.25
 20
74.74
 30
0.0
 11
160.25
 21
74.74
 31
0.0
  0
CIRCLE
  5
100
  8
0
 10
165.25
 20
69.74
 30
0.0
 40
1.749999999999989
  0
LINE
  5
101
  8
0
 10
173.1
 20
74.74
 30
0.0
 11
173.1
 21
64.74
 31
0.0
  0
LINE
  5
102
  8
0
 10
173.1
 20
64.74
 30
0.0
 11
183.1
 21
64.74
 31
0.0
  0
LINE
  5
103
  8
0
 10
183.1
 20
64.74
 30
0.0
 11
183.1
 21
74.74
 31
0.0
  0
LINE
  5
104
  8
0
 10
183.1
 20
74.74
 30
0.0
 11
173.1
 21
74.74
 31
0.0
  0
CIRCLE
  5
105
  8
0
 10
178.1
 20
69.74
 30
0.0
 40
1.749999999999989
  0
LINE
  5
106
  8
0
 10
240.0
 20
105.0
 30
0.0
 11
240.0
 21
90.0
 31
0.0
  0
LINE
  5
107
  8
0
 10
240.0
 20
-5.000000000000007
 30
0.0
 11
240.0
 21
14.99999999999999
 31
0.0
  0
LINE
  5
108
  8
0
 10
245.0
 20
14.99999999999999
 30
0.0
 11
245.0
 21
24.99999999999999
 31
0.0
  0
LINE
  5
109
  8
0
 10
245.0
 20
24.99999999999999
 30
0.0
 11
240.0
 21
24.99999999999999
 31
0.0
  0
LINE
  5
10A
  8
0
 10
240.0
 20
14.99999999999999
 30
0.0
 11
245.0
 21
14.99999999999999
 31
0.0
  0
LINE
  5
10B
  8
0
 10
245.0
 20
90.0
 30
0.0
 11
245.0
 21
80.0
 31
0.0
  0
LINE
  5
10C
  8
0
 10
245.0
 20
80.0
 30
0.0
 11
240.0
 21
80.0
 31
0.0
  0
LINE
  5
10D
  8
0
 10
240.0
 20
90.0
 30
0.0
 11
245.0
 21
90.0
 31
0.0
  0
LINE
  5
10E
  8
0
 10
-4.999999999999996
 20
110.0
 30
0.0
 11
-4.999999999999996
 21
105.0
 31
0.0
  0
LINE
  5
10F
  8
0
 10
-9.999999999999998
 20
90.0
 30
0.0
 11
-9.999999999999998
 21
80.0
 31
0.0
  0
LINE
  5
110
  8
0
 10
-9.999999999999998
 20
80.0
 30
0.0
 11
-4.999999999999998
 21
80.0
 31
0.0
  0
LINE
  5
111
  8
0
 10
-4.999999999999997
 20
90.0
 30
0.0
 11
-9.999999999999998
 21
90.0
 31
0.0
  0
LINE
  5
112
  8
0
 10
-5.0
 20
-5.0
 30
0.0
 11
-5.0
 21
0.0
 31
0.0
  0
LINE
  5
113
  8
0
 10
-10.0
 20
15.0
 30
0.0
 11
-10.0
 21
25.0
 31
0.0
  0
LINE
  5
114
  8
0
 10
-10.0
 20
25.0
 30
0.0
 11
-5.0
 21
25.0
 31
0.0
  0
LINE
  5
115
  8
0
 10
-5.0
 20
15.0
 30
0.0
 11
-10.0
 21
15.0
 31
0.0
  0
LINE
  5
116
  8
0
 10
-4.999999999999997
 20
90.0
 30
0.0
 11
-4.999999999999997
 21
105.0
 31
0.0
  0
LINE
  5
117
  8
0
 10
-5.0
 20
0.0000000000000001
 30
0.0
 11
-5.0
 21
15.0
 31
0.0
  0
LINE
  5
118
  8
0
 10
-4.999999999999999
 20
25.0
 30
0.0
 11
-4.999999999999997
 21
80.0
 31
0.0
  0
CIRCLE
  5
119
  8
0
 10
117.5
 20
105.0
 30
0.0
 40
1.75
  0
CIRCLE
  5
11A
  8
0
 10
117.5
 20
-0.0000000000000033
 30
0.0
 40
1.75
  0
LINE
  5
11B
  8
0
 10
117.5
 20
115.0
 30
0.0
 11
122.5
 21
115.0
 31
0.0
  0
LINE
  5
11C
  8
0
 10
122.5
 20
115.0
 30
0.0
 11
122.5
 21
110.0
 31
0.0
  0
LINE
  5
11D
  8
0
 10
117.5
 20
115.0
 30
0.0
 11
112.5
 21
115.0
 31
0.0
  0
LINE
  5
11E
  8
0
 10
112.5
 20
115.0
 30
0.0
 11
112.5
 21
110.0
 31
0.0
  0
LINE
  5
11F
  8
0
 10
220.0
 20
115.0
 30
0.0
 11
220.0
 21
110.0
 31
0.0
  0
LINE
  5
120
  8
0
 10
210.0
 20
110.0
 30
0.0
 11
210.0
 21
115.0
 31
0.0
  0
LINE
  5
121
  8
0
 10
210.0
 20
115.0
 30
0.0
 11
220.0
 21
115.0
 31
0.0
  0
LINE
  5
122
  8
0
 10
14.99999999999999
 20
110.0
 30
0.0
 11
-5.000000000000001
 21
110.0
 31
0.0
  0
LINE
  5
123
  8
0
 10
14.99999999999999
 20
115.0
 30
0.0
 11
14.99999999999999
 21
110.0
 31
0.0
  0
LINE
  5
124
  8
0
 10
25.0
 20
110.0
 30
0.0
 11
25.0
 21
115.0
 31
0.0
  0
LINE
  5
125
  8
0
 10
25.0
 20
115.0
 30
0.0
 11
14.99999999999999
 21
115.0
 31
0.0
  0
LINE
  5
126
  8
0
 10
112.5
 20
110.0
 30
0.0
 11
24.99999999999999
 21
110.0
 31
0.0
  0
LINE
  5
127
  8
0
 10
240.0
 20
110.0
 30
0.0
 11
220.0
 21
110.0
 31
0.0
  0
LINE
  5
128
  8
0
 10
210.0
 20
110.0
 30
0.0
 11
122.5
 21
110.0
 31
0.0
  0
LINE
  5
129
  8
0
 10
117.5
 20
-10.0
 30
0.0
 11
122.5
 21
-10.0
 31
0.0
  0
LINE
  5
12A
  8
0
 10
122.5
 20
-10.0
 30
0.0
 11
122.5
 21
-5.000000000000004
 31
0.0
  0
LINE
  5
12B
  8
0
 10
112.5
 20
-5.000000000000004
 30
0.0
 11
112.5
 21
-10.0
 31
0.0
  0
LINE
  5
12C
  8
0
 10
112.5
 20
-10.0
 30
0.0
 11
117.5
 21
-10.0
 31
0.0
  0
LINE
  5
12D
  8
0
 10
15.0
 20
-5.0
 30
0.0
 11
-5.000000000000001
 21
-4.999999999999999
 31
0.0
  0
LINE
  5
12E
  8
0
 10
15.0
 20
-10.0
 30
0.0
 11
15.0
 21
-5.0
 31
0.0
  0
LINE
  5
12F
  8
0
 10
25.0
 20
-5.000000000000001
 30
0.0
 11
25.0
 21
-10.0
 31
0.0
  0
LINE
  5
130
  8
0
 10
25.0
 20
-10.0
 30
0.0
 11
15.0
 21
-10.0
 31
0.0
  0
LINE
  5
131
  8
0
 10
220.0
 20
-10.00000000000001
 30
0.0
 11
220.0
 21
-5.000000000000007
 31
0.0
  0
LINE
  5
132
  8
0
 10
210.0
 20
-5.000000000000006
 30
0.0
 11
210.0
 21
-10.00000000000001
 31
0.0
  0
LINE
  5
133
  8
0
 10
210.0
 20
-10.00000000000001
 30
0.0
 11
220.0
 21
-10.00000000000001
 31
0.0
  0
LINE
  5
134
  8
0
 10
25.0
 20
-5.000000000000001
 30
0.0
 11
112.5
 21
-5.000000000000004
 31
0.0
  0
LINE
  5
135
  8
0
 10
122.5
 20
-5.000000000000004
 30
0.0
 11
210.0
 21
-5.000000000000006
 31
0.0
  0
LINE
  5
136
  8
0
 10
220.0
 20
-5.000000000000006
 30
0.0
 11
240.0
 21
-5.000000000000007
 31
0.0
  0
ENDSEC
  0
EOF
