  0
SECTION
  2
HEADER
  9
$ACADVER
  1
AC1009
  9
$DWGCODEPAGE
  3
ansi_1252
  9
$INSBASE
 10
0.0
 20
0.0
 30
0.0
  9
$EXTMIN
 10
-12.38000000000003
 20
-15.00000000000001
 30
-0.0000000000000228
  9
$EXTMAX
 10
390.9300000000001
 20
372.9900000000001
 30
0.0000000000000009
  9
$LIMMIN
 10
0.0
 20
0.0
  9
$LIMMAX
 10
420.0
 20
297.0
  9
$ORTHOMODE
 70
     0
  9
$REGENMODE
 70
     1
  9
$FILLMODE
 70
     1
  9
$QTEXTMODE
 70
     0
  9
$MIRRTEXT
 70
     1
  9
$DRAGMODE
 70
     2
  9
$LTSCALE
 40
1.0
  9
$OSMODE
 70
    37
  9
$ATTMODE
 70
     1
  9
$TEXTSIZE
 40
2.5
  9
$TRACEWID
 40
1.0
  9
$TEXTSTYLE
  7
STANDARD
  9
$CLAYER
  8
0
  9
$CELTYPE
  6
BYLAYER
  9
$CECOLOR
 62
   256
  9
$DIMSCALE
 40
1.0
  9
$DIMASZ
 40
2.5
  9
$DIMEXO
 40
0.625
  9
$DIMDLI
 40
3.75
  9
$DIMRND
 40
0.0
  9
$DIMDLE
 40
0.0
  9
$DIMEXE
 40
1.25
  9
$DIMTP
 40
0.0
  9
$DIMTM
 40
0.0
  9
$DIMTXT
 40
2.5
  9
$DIMCEN
 40
2.5
  9
$DIMTSZ
 40
0.0
  9
$DIMTOL
 70
     0
  9
$DIMLIM
 70
     0
  9
$DIMTIH
 70
     1
  9
$DIMTOH
 70
     0
  9
$DIMSE1
 70
     0
  9
$DIMSE2
 70
     0
  9
$DIMTAD
 70
     1
  9
$DIMZIN
 70
     8
  9
$DIMBLK
  1

  9
$DIMASO
 70
     1
  9
$DIMSHO
 70
     1
  9
$DIMPOST
  1
mm
  9
$DIMAPOST
  1

  9
$DIMALT
 70
     0
  9
$DIMALTD
 70
     3
  9
$DIMALTF
 40
0.0393700787401575
  9
$DIMLFAC
 40
1.0
  9
$DIMTOFL
 70
     1
  9
$DIMTVP
 40
0.0
  9
$DIMTIX
 70
     0
  9
$DIMSOXD
 70
     0
  9
$DIMSAH
 70
     0
  9
$DIMBLK1
  1

  9
$DIMBLK2
  1

  9
$DIMSTYLE
  2
ISO-25
  9
$DIMCLRD
 70
     0
  9
$DIMCLRE
 70
     0
  9
$DIMCLRT
 70
     0
  9
$DIMTFAC
 40
1.0
  9
$DIMGAP
 40
0.625
  9
$LUNITS
 70
     2
  9
$LUPREC
 70
     4
  9
$SKETCHINC
 40
1.0
  9
$FILLETRAD
 40
10.0
  9
$AUNITS
 70
     0
  9
$AUPREC
 70
     0
  9
$MENU
  1
.
  9
$ELEVATION
 40
0.0
  9
$PELEVATION
 40
0.0
  9
$THICKNESS
 40
0.0
  9
$LIMCHECK
 70
     0
  9
$CHAMFERA
 40
0.0
  9
$CHAMFERB
 40
0.0
  9
$SKPOLY
 70
     0
  9
$TDCREATE
 40
2459423.382502407
  9
$TDUPDATE
 40
2459423.382503391
  9
$TDINDWG
 40
0.0000000116
  9
$TDUSRTIMER
 40
0.0000000116
  9
$USRTIMER
 70
     1
  9
$ANGBASE
 50
0.0
  9
$ANGDIR
 70
     0
  9
$PDMODE
 70
     0
  9
$PDSIZE
 40
0.0
  9
$PLINEWID
 40
0.0
  9
$COORDS
 70
     1
  9
$SPLFRAME
 70
     0
  9
$SPLINETYPE
 70
     6
  9
$SPLINESEGS
 70
     8
  9
$ATTDIA
 70
     0
  9
$ATTREQ
 70
     1
  9
$HANDLING
 70
     1
  9
$HANDSEED
  5
23E
  9
$SURFTAB1
 70
     6
  9
$SURFTAB2
 70
     6
  9
$SURFTYPE
 70
     6
  9
$SURFU
 70
     6
  9
$SURFV
 70
     6
  9
$UCSNAME
  2

  9
$UCSORG
 10
0.0
 20
0.0
 30
0.0
  9
$UCSXDIR
 10
1.0
 20
0.0
 30
0.0
  9
$UCSYDIR
 10
0.0
 20
1.0
 30
0.0
  9
$PUCSNAME
  2

  9
$PUCSORG
 10
0.0
 20
0.0
 30
0.0
  9
$PUCSXDIR
 10
1.0
 20
0.0
 30
0.0
  9
$PUCSYDIR
 10
0.0
 20
1.0
 30
0.0
  9
$USERI1
 70
     0
  9
$USERI2
 70
     0
  9
$USERI3
 70
     0
  9
$USERI4
 70
     0
  9
$USERI5
 70
     0
  9
$USERR1
 40
0.0
  9
$USERR2
 40
0.0
  9
$USERR3
 40
0.0
  9
$USERR4
 40
0.0
  9
$USERR5
 40
0.0
  9
$WORLDVIEW
 70
     1
  9
$SHADEDGE
 70
     3
  9
$SHADEDIF
 70
    70
  9
$TILEMODE
 70
     1
  9
$MAXACTVP
 70
    64
  9
$PLIMCHECK
 70
     0
  9
$PEXTMIN
 10
1.000000000000000E+20
 20
1.000000000000000E+20
 30
1.000000000000000E+20
  9
$PEXTMAX
 10
-1.000000000000000E+20
 20
-1.000000000000000E+20
 30
-1.000000000000000E+20
  9
$PLIMMIN
 10
0.0
 20
0.0
  9
$PLIMMAX
 10
420.0
 20
297.0
  9
$UNITMODE
 70
     0
  9
$VISRETAIN
 70
     1
  9
$PLINEGEN
 70
     0
  9
$PSLTSCALE
 70
     1
  0
ENDSEC
  0
SECTION
  2
TABLES
  0
TABLE
  2
VPORT
 70
     1
  0
VPORT
  2
*ACTIVE
 70
     0
 10
0.0
 20
0.0
 11
1.0
 21
1.0
 12
189.275
 22
178.995
 13
0.0
 23
0.0
 14
10.0
 24
10.0
 15
10.0
 25
10.0
 16
0.0
 26
0.0
 36
1.0
 17
0.0
 27
0.0
 37
0.0
 40
387.9900000000001
 41
1.039485553751385
 42
50.0
 43
0.0
 44
0.0
 50
0.0
 51
0.0
 71
     0
 72
   100
 73
     1
 74
     3
 75
     0
 76
     0
 77
     0
 78
     0
  0
ENDTAB
  0
TABLE
  2
LTYPE
 70
     1
  0
LTYPE
  2
CONTINUOUS
 70
     0
  3
Solid line
 72
    65
 73
     0
 40
0.0
  0
ENDTAB
  0
TABLE
  2
LAYER
 70
     1
  0
LAYER
  2
0
 70
     0
 62
   253
  6
CONTINUOUS
  0
ENDTAB
  0
TABLE
  2
STYLE
 70
     1
  0
STYLE
  2
STANDARD
 70
     0
 40
0.0
 41
1.0
 50
0.0
 71
     0
 42
2.5
  3
txt
  4

  0
ENDTAB
  0
TABLE
  2
VIEW
 70
     0
  0
ENDTAB
  0
TABLE
  2
UCS
 70
     0
  0
ENDTAB
  0
TABLE
  2
APPID
 70
     1
  0
APPID
  2
ACAD
 70
     0
  0
ENDTAB
  0
TABLE
  2
DIMSTYLE
 70
     1
  0
DIMSTYLE
  2
ISO-25
 70
     0
  3

  4

  5

  6

  7

 40
1.0
 41
2.5
 42
0.625
 43
3.75
 44
1.25
 45
0.0
 46
0.0
 47
0.0
 48
0.0
140
2.5
141
2.5
142
0.0
143
0.03937007874016
144
1.0
145
0.0
146
1.0
147
0.625
 71
     0
 72
     0
 73
     0
 74
     0
 75
     0
 76
     0
 77
     1
 78
     8
170
     0
171
     3
172
     1
173
     0
174
     0
175
     0
176
     0
177
     0
178
     0
  0
ENDTAB
  0
ENDSEC
  0
SECTION
  2
BLOCKS
  0
BLOCK
  8
0
  2
$MODEL_SPACE
 70
     0
 10
0.0
 20
0.0
 30
0.0
  3
$MODEL_SPACE
  1

  0
ENDBLK
  5
21
  8
0
  0
BLOCK
 67
     1
  8
0
  2
$PAPER_SPACE
 70
     0
 10
0.0
 20
0.0
 30
0.0
  3
$PAPER_SPACE
  1

  0
ENDBLK
  5
1D
 67
     1
  8
0
  0
ENDSEC
  0
SECTION
  2
ENTITIES
  0
LINE
  5
6E
  8
0
 10
287.0000000000001
 20
-15.0
 30
0.0
 11
377.0
 21
-15.00000000000001
 31
0.0
  0
LINE
  5
6F
  8
0
 10
377.0
 20
120.0
 30
0.0
 11
287.0000000000001
 21
120.0
 31
0.0
  0
LINE
  5
70
  8
0
 10
277.0
 20
79.99999999999999
 30
0.0
 11
268.7500000000001
 21
79.99999999999999
 31
0.0
  0
LINE
  5
71
  8
0
 10
267.0
 20
81.74999999999999
 30
0.0
 11
267.0
 21
98.24999999999999
 31
0.0
  0
LINE
  5
72
  8
0
 10
268.7500000000001
 20
100.0
 30
0.0
 11
277.0
 21
100.0
 31
0.0
  0
LINE
  5
73
  8
0
 10
277.0
 20
4.999999999999993
 30
0.0
 11
268.75
 21
4.999999999999992
 31
0.0
  0
LINE
  5
74
  8
0
 10
267.0
 20
6.749999999999992
 30
0.0
 11
267.0
 21
23.24999999999999
 31
0.0
  0
LINE
  5
75
  8
0
 10
268.75
 20
24.99999999999999
 30
0.0
 11
277.0
 21
24.99999999999999
 31
0.0
  0
LINE
  5
76
  8
0
 10
277.0
 20
79.99999999999999
 30
0.0
 11
277.0
 21
24.99999999999998
 31
0.0
  0
ARC
  5
77
  8
0
 10
268.7500000000001
 20
98.24999999999999
 30
0.0
 40
1.750000000000002
 50
90.0
 51
180.0
  0
ARC
  5
78
  8
0
 10
268.7500000000001
 20
81.74999999999999
 30
0.0
 40
1.750000000000002
 50
180.0
 51
270.0
  0
ARC
  5
79
  8
0
 10
268.75
 20
6.749999999999992
 30
0.0
 40
1.75
 50
180.0
 51
270.0
  0
ARC
  5
7A
  8
0
 10
268.75
 20
23.24999999999999
 30
0.0
 40
1.749999999999998
 50
90.0
 51
180.0
  0
LINE
  5
7B
  8
0
 10
327.0
 20
115.0
 30
0.0
 11
337.0
 21
115.0
 31
0.0
  0
LINE
  5
7C
  8
0
 10
337.0
 20
115.0
 30
0.0
 11
337.0
 21
110.0
 31
0.0
  0
LINE
  5
7D
  8
0
 10
337.0
 20
110.0
 30
0.0
 11
327.0
 21
110.0
 31
0.0
  0
LINE
  5
7E
  8
0
 10
327.0
 20
115.0
 30
0.0
 11
317.0
 21
115.0
 31
0.0
  0
LINE
  5
7F
  8
0
 10
317.0
 20
115.0
 30
0.0
 11
317.0
 21
110.0
 31
0.0
  0
LINE
  5
80
  8
0
 10
317.0
 20
110.0
 30
0.0
 11
327.0
 21
110.0
 31
0.0
  0
LINE
  5
81
  8
0
 10
327.0
 20
-10.00000000000001
 30
0.0
 11
337.0
 21
-10.00000000000001
 31
0.0
  0
LINE
  5
82
  8
0
 10
337.0
 20
-10.00000000000001
 30
0.0
 11
337.0
 21
-5.000000000000013
 31
0.0
  0
LINE
  5
83
  8
0
 10
337.0
 20
-5.000000000000014
 30
0.0
 11
327.0
 21
-5.000000000000014
 31
0.0
  0
LINE
  5
84
  8
0
 10
327.0
 20
-5.000000000000013
 30
0.0
 11
317.0
 21
-5.000000000000013
 31
0.0
  0
LINE
  5
85
  8
0
 10
317.0
 20
-5.000000000000013
 30
0.0
 11
317.0
 21
-10.00000000000001
 31
0.0
  0
LINE
  5
86
  8
0
 10
317.0
 20
-10.00000000000001
 30
0.0
 11
327.0
 21
-10.00000000000001
 31
0.0
  0
LINE
  5
87
  8
0
 10
277.0
 20
120.0
 30
0.0
 11
277.0
 21
100.0
 31
0.0
  0
LINE
  5
88
  8
0
 10
287.0000000000001
 20
120.0
 30
0.0
 11
277.0
 21
120.0
 31
0.0
  0
LINE
  5
89
  8
0
 10
282.0
 20
89.99999999999999
 30
0.0
 11
282.0
 21
79.99999999999999
 31
0.0
  0
LINE
  5
8A
  8
0
 10
282.0
 20
79.99999999999999
 30
0.0
 11
287.0000000000001
 21
79.99999999999999
 31
0.0
  0
LINE
  5
8B
  8
0
 10
287.0000000000001
 20
79.99999999999999
 30
0.0
 11
287.0000000000001
 21
89.99999999999999
 31
0.0
  0
LINE
  5
8C
  8
0
 10
287.0000000000001
 20
89.99999999999999
 30
0.0
 11
282.0
 21
89.99999999999999
 31
0.0
  0
LINE
  5
8D
  8
0
 10
277.0
 20
-14.99999999999999
 30
0.0
 11
277.0
 21
4.999999999999997
 31
0.0
  0
LINE
  5
8E
  8
0
 10
287.0000000000001
 20
-14.99999999999999
 30
0.0
 11
277.0
 21
-14.99999999999999
 31
0.0
  0
LINE
  5
8F
  8
0
 10
282.0
 20
14.99999999999999
 30
0.0
 11
282.0
 21
24.99999999999997
 31
0.0
  0
LINE
  5
90
  8
0
 10
282.0
 20
24.99999999999997
 30
0.0
 11
287.0000000000001
 21
24.99999999999997
 31
0.0
  0
LINE
  5
91
  8
0
 10
287.0000000000001
 20
24.99999999999997
 30
0.0
 11
287.0000000000001
 21
14.99999999999999
 31
0.0
  0
LINE
  5
92
  8
0
 10
287.0000000000001
 20
14.99999999999999
 30
0.0
 11
282.0
 21
14.99999999999999
 31
0.0
  0
LINE
  5
93
  8
0
 10
117.0
 20
17.49999999999999
 30
0.0
 11
117.0
 21
87.5
 31
0.0
  0
LINE
  5
94
  8
0
 10
117.0
 20
110.0
 30
0.0
 11
117.0
 21
87.5
 31
0.0
  0
LINE
  5
95
  8
0
 10
197.0
 20
110.0
 30
0.0
 11
137.0
 21
110.0
 31
0.0
  0
LINE
  5
96
  8
0
 10
117.0
 20
-5.000000000000008
 30
0.0
 11
117.0
 21
17.49999999999999
 31
0.0
  0
LINE
  5
97
  8
0
 10
197.0
 20
-5.00000000000001
 30
0.0
 11
137.0
 21
-5.000000000000008
 31
0.0
  0
LINE
  5
98
  8
0
 10
217.0
 20
87.5
 30
0.0
 11
217.0
 21
83.49999999999999
 31
0.0
  0
CIRCLE
  5
99
  8
0
 10
208.0
 20
83.49999999999999
 30
0.0
 40
2.0
  0
CIRCLE
  5
9A
  8
0
 10
208.0
 20
21.49999999999999
 30
0.0
 40
2.0
  0
CIRCLE
  5
9B
  8
0
 10
131.5
 20
83.49999999999984
 30
0.0
 40
2.000000000000002
  0
CIRCLE
  5
9C
  8
0
 10
131.5000000000001
 20
21.49999999999999
 30
0.0
 40
2.000000000000002
  0
LINE
  5
9D
  8
0
 10
217.0
 20
110.0
 30
0.0
 11
217.0
 21
87.5
 31
0.0
  0
LINE
  5
9E
  8
0
 10
217.0
 20
83.49999999999999
 30
0.0
 11
217.0
 21
-5.000000000000004
 31
0.0
  0
LINE
  5
9F
  8
0
 10
117.0
 20
110.0
 30
0.0
 11
117.0
 21
115.0
 31
0.0
  0
LINE
  5
A0
  8
0
 10
117.0
 20
115.0
 30
0.0
 11
137.0
 21
115.0
 31
0.0
  0
LINE
  5
A1
  8
0
 10
137.0
 20
115.0
 30
0.0
 11
137.0
 21
110.0
 31
0.0
  0
LINE
  5
A2
  8
0
 10
217.0
 20
110.0
 30
0.0
 11
217.0
 21
115.0
 31
0.0
  0
LINE
  5
A3
  8
0
 10
217.0
 20
115.0
 30
0.0
 11
197.0
 21
115.0
 31
0.0
  0
LINE
  5
A4
  8
0
 10
197.0
 20
115.0
 30
0.0
 11
197.0
 21
110.0
 31
0.0
  0
LINE
  5
A5
  8
0
 10
217.0
 20
-5.000000000000011
 30
0.0
 11
217.0
 21
-10.0
 31
0.0
  0
LINE
  5
A6
  8
0
 10
217.0
 20
-10.0
 30
0.0
 11
197.0
 21
-10.0
 31
0.0
  0
LINE
  5
A7
  8
0
 10
197.0
 20
-10.0
 30
0.0
 11
197.0
 21
-5.00000000000001
 31
0.0
  0
LINE
  5
A8
  8
0
 10
117.0
 20
-5.000000000000008
 30
0.0
 11
117.0
 21
-9.999999999999998
 31
0.0
  0
LINE
  5
A9
  8
0
 10
117.0
 20
-9.999999999999998
 30
0.0
 11
137.0
 21
-9.999999999999998
 31
0.0
  0
LINE
  5
AA
  8
0
 10
137.0
 20
-9.999999999999998
 30
0.0
 11
137.0
 21
-5.000000000000008
 31
0.0
  0
CIRCLE
  5
AB
  8
0
 10
167.0
 20
52.5
 30
0.0
 40
35.00357124637428
  0
LINE
  5
AC
  8
0
 10
377.0
 20
120.0
 30
0.0
 11
377.0
 21
100.0
 31
0.0
  0
LINE
  5
AD
  8
0
 10
382.0
 20
99.99999999999996
 30
0.0
 11
382.0
 21
79.99999999999999
 31
0.0
  0
LINE
  5
AE
  8
0
 10
382.0
 20
79.99999999999999
 30
0.0
 11
377.0
 21
79.99999999999999
 31
0.0
  0
LINE
  5
AF
  8
0
 10
377.0
 20
99.99999999999996
 30
0.0
 11
382.0
 21
99.99999999999996
 31
0.0
  0
LINE
  5
B0
  8
0
 10
382.0
 20
4.999999999999992
 30
0.0
 11
382.0
 21
24.99999999999999
 31
0.0
  0
LINE
  5
B1
  8
0
 10
382.0
 20
24.99999999999999
 30
0.0
 11
377.0
 21
24.99999999999999
 31
0.0
  0
LINE
  5
B2
  8
0
 10
377.0
 20
4.999999999999992
 30
0.0
 11
382.0
 21
4.999999999999992
 31
0.0
  0
LINE
  5
B3
  8
0
 10
377.0
 20
-15.00000000000001
 30
0.0
 11
377.0
 21
4.999999999999996
 31
0.0
  0
LINE
  5
B4
  8
0
 10
377.0
 20
24.99999999999999
 30
0.0
 11
377.0
 21
79.99999999999999
 31
0.0
  0
LINE
  5
B5
  8
0
 10
377.0
 20
89.99999999999999
 30
0.0
 11
377.0
 21
94.99999999999999
 31
0.0
  0
LINE
  5
B6
  8
0
 10
377.0
 20
94.99999999999999
 30
0.0
 11
372.0
 21
94.99999999999999
 31
0.0
  0
LINE
  5
B7
  8
0
 10
372.0
 20
94.99999999999999
 30
0.0
 11
372.0
 21
89.99999999999999
 31
0.0
  0
LINE
  5
B8
  8
0
 10
377.0
 20
84.99999999999997
 30
0.0
 11
372.0
 21
84.99999999999997
 31
0.0
  0
LINE
  5
B9
  8
0
 10
372.0
 20
84.99999999999997
 30
0.0
 11
372.0
 21
89.99999999999999
 31
0.0
  0
LINE
  5
BA
  8
0
 10
377.0
 20
84.99999999999997
 30
0.0
 11
377.0
 21
89.99999999999999
 31
0.0
  0
LINE
  5
BB
  8
0
 10
377.0
 20
14.99999999999999
 30
0.0
 11
377.0
 21
19.99999999999999
 31
0.0
  0
LINE
  5
BC
  8
0
 10
377.0
 20
19.99999999999999
 30
0.0
 11
372.0000000000001
 21
19.99999999999999
 31
0.0
  0
LINE
  5
BD
  8
0
 10
372.0000000000001
 20
19.99999999999999
 30
0.0
 11
372.0000000000001
 21
14.99999999999999
 31
0.0
  0
LINE
  5
BE
  8
0
 10
377.0
 20
14.99999999999999
 30
0.0
 11
377.0
 21
10.00000000000005
 31
0.0
  0
LINE
  5
BF
  8
0
 10
377.0
 20
10.00000000000005
 30
0.0
 11
372.0000000000001
 21
10.00000000000005
 31
0.0
  0
LINE
  5
C0
  8
0
 10
372.0000000000001
 20
10.00000000000005
 30
0.0
 11
372.0000000000001
 21
14.99999999999999
 31
0.0
  0
ARC
  5
C1
  8
0
 10
327.5018230121086
 20
52.15999999999998
 30
0.0
 40
14.99999999999999
 50
7.662255660766067
 51
82.33774433923405
  0
ARC
  5
C2
  8
0
 10
327.5018230121086
 20
52.15999999999998
 30
0.0
 40
17.5
 50
277.662255660766
 51
352.3377443392333
  0
ARC
  5
C3
  8
0
 10
327.5018230121086
 20
52.15999999999998
 30
0.0
 40
14.99999999999999
 50
97.6622556607661
 51
172.3377443392339
  0
ARC
  5
C4
  8
0
 10
327.5018230121086
 20
52.15999999999998
 30
0.0
 40
14.99999999999999
 50
187.662255660766
 51
262.337744339234
  0
LINE
  5
C5
  8
0
 10
7.620000000000015
 20
-14.99999999999999
 30
0.0
 11
97.61999999999999
 21
-15.0
 31
0.0
  0
LINE
  5
C6
  8
0
 10
97.61999999999999
 20
120.0
 30
0.0
 11
7.620000000000015
 21
120.0
 31
0.0
  0
LINE
  5
C7
  8
0
 10
-2.379999999999991
 20
80.0
 30
0.0
 11
-10.62999999999997
 21
80.0
 31
0.0
  0
LINE
  5
C8
  8
0
 10
-12.38
 20
81.75
 30
0.0
 11
-12.38
 21
98.25
 31
0.0
  0
LINE
  5
C9
  8
0
 10
-10.62999999999997
 20
100.0
 30
0.0
 11
-2.37999999999999
 21
100.0
 31
0.0
  0
LINE
  5
CA
  8
0
 10
-2.379999999999993
 20
5.000000000000001
 30
0.0
 11
-10.63000000000003
 21
5.0
 31
0.0
  0
LINE
  5
CB
  8
0
 10
-12.38
 20
6.75
 30
0.0
 11
-12.38
 21
23.25
 31
0.0
  0
LINE
  5
CC
  8
0
 10
-10.63000000000003
 20
24.99999999999999
 30
0.0
 11
-2.379999999999993
 21
24.99999999999999
 31
0.0
  0
LINE
  5
CD
  8
0
 10
-2.379999999999991
 20
80.0
 30
0.0
 11
-2.379999999999993
 21
24.99999999999999
 31
0.0
  0
ARC
  5
CE
  8
0
 10
-10.62999999999997
 20
98.25
 30
0.0
 40
1.750000000000002
 50
90.0
 51
180.0
  0
ARC
  5
CF
  8
0
 10
-10.62999999999997
 20
81.75
 30
0.0
 40
1.750000000000002
 50
180.0
 51
270.0
  0
ARC
  5
D0
  8
0
 10
-10.63000000000003
 20
6.75
 30
0.0
 40
1.75
 50
180.0
 51
270.0
  0
ARC
  5
D1
  8
0
 10
-10.63000000000003
 20
23.25
 30
0.0
 40
1.749999999999998
 50
90.0
 51
180.0
  0
LINE
  5
D2
  8
0
 10
47.62
 20
115.0
 30
0.0
 11
57.62
 21
115.0
 31
0.0
  0
LINE
  5
D3
  8
0
 10
57.62
 20
115.0
 30
0.0
 11
57.62
 21
110.0
 31
0.0
  0
LINE
  5
D4
  8
0
 10
57.62
 20
110.0
 30
0.0
 11
47.62
 21
110.0
 31
0.0
  0
LINE
  5
D5
  8
0
 10
47.62
 20
115.0
 30
0.0
 11
37.61999999999999
 21
115.0
 31
0.0
  0
LINE
  5
D6
  8
0
 10
37.61999999999999
 20
115.0
 30
0.0
 11
37.61999999999999
 21
110.0
 31
0.0
  0
LINE
  5
D7
  8
0
 10
37.61999999999999
 20
110.0
 30
0.0
 11
47.62
 21
110.0
 31
0.0
  0
LINE
  5
D8
  8
0
 10
47.62
 20
-10.00000000000001
 30
0.0
 11
57.62
 21
-10.00000000000001
 31
0.0
  0
LINE
  5
D9
  8
0
 10
57.62
 20
-10.00000000000001
 30
0.0
 11
57.62
 21
-5.000000000000006
 31
0.0
  0
LINE
  5
DA
  8
0
 10
57.62
 20
-5.000000000000006
 30
0.0
 11
47.62
 21
-5.000000000000006
 31
0.0
  0
LINE
  5
DB
  8
0
 10
47.62
 20
-5.000000000000006
 30
0.0
 11
37.61999999999999
 21
-5.000000000000006
 31
0.0
  0
LINE
  5
DC
  8
0
 10
37.61999999999999
 20
-5.000000000000005
 30
0.0
 11
37.61999999999999
 21
-10.00000000000001
 31
0.0
  0
LINE
  5
DD
  8
0
 10
37.61999999999999
 20
-10.00000000000001
 30
0.0
 11
47.62
 21
-10.00000000000001
 31
0.0
  0
LINE
  5
DE
  8
0
 10
-2.37999999999999
 20
120.0
 30
0.0
 11
-2.37999999999999
 21
100.0
 31
0.0
  0
LINE
  5
DF
  8
0
 10
7.620000000000019
 20
120.0
 30
0.0
 11
-2.37999999999999
 21
120.0
 31
0.0
  0
LINE
  5
E0
  8
0
 10
2.620000000000018
 20
90.0
 30
0.0
 11
2.620000000000018
 21
80.0
 31
0.0
  0
LINE
  5
E1
  8
0
 10
2.620000000000018
 20
80.0
 30
0.0
 11
7.620000000000022
 21
80.0
 31
0.0
  0
LINE
  5
E2
  8
0
 10
7.620000000000022
 20
80.0
 30
0.0
 11
7.620000000000022
 21
90.0
 31
0.0
  0
LINE
  5
E3
  8
0
 10
7.620000000000023
 20
90.0
 30
0.0
 11
2.620000000000019
 21
90.0
 31
0.0
  0
LINE
  5
E4
  8
0
 10
-2.379999999999994
 20
-14.99999999999999
 30
0.0
 11
-2.379999999999993
 21
5.000000000000004
 31
0.0
  0
LINE
  5
E5
  8
0
 10
7.620000000000015
 20
-14.99999999999999
 30
0.0
 11
-2.379999999999993
 21
-14.99999999999999
 31
0.0
  0
LINE
  5
E6
  8
0
 10
2.620000000000016
 20
15.0
 30
0.0
 11
2.620000000000017
 21
24.99999999999998
 31
0.0
  0
LINE
  5
E7
  8
0
 10
2.620000000000017
 20
24.99999999999998
 30
0.0
 11
7.620000000000021
 21
24.99999999999998
 31
0.0
  0
LINE
  5
E8
  8
0
 10
7.620000000000021
 20
24.99999999999998
 30
0.0
 11
7.620000000000021
 21
15.0
 31
0.0
  0
LINE
  5
E9
  8
0
 10
7.620000000000021
 20
15.0
 30
0.0
 11
2.620000000000017
 21
15.0
 31
0.0
  0
LINE
  5
EA
  8
0
 10
97.61999999999999
 20
120.0
 30
0.0
 11
97.61999999999999
 21
100.0
 31
0.0
  0
LINE
  5
EB
  8
0
 10
102.62
 20
99.99999999999997
 30
0.0
 11
102.62
 21
80.0
 31
0.0
  0
LINE
  5
EC
  8
0
 10
102.62
 20
80.0
 30
0.0
 11
97.61999999999999
 21
80.0
 31
0.0
  0
LINE
  5
ED
  8
0
 10
97.61999999999999
 20
99.99999999999997
 30
0.0
 11
102.62
 21
99.99999999999997
 31
0.0
  0
LINE
  5
EE
  8
0
 10
102.62
 20
5.0
 30
0.0
 11
102.62
 21
25.0
 31
0.0
  0
LINE
  5
EF
  8
0
 10
102.62
 20
25.0
 30
0.0
 11
97.61999999999999
 21
25.0
 31
0.0
  0
LINE
  5
F0
  8
0
 10
97.61999999999999
 20
5.0
 30
0.0
 11
102.62
 21
5.0
 31
0.0
  0
LINE
  5
F1
  8
0
 10
97.61999999999999
 20
-15.0
 30
0.0
 11
97.61999999999999
 21
5.000000000000003
 31
0.0
  0
LINE
  5
F2
  8
0
 10
97.61999999999999
 20
25.0
 30
0.0
 11
97.61999999999999
 21
80.0
 31
0.0
  0
LINE
  5
F3
  8
0
 10
97.61999999999999
 20
90.0
 30
0.0
 11
97.61999999999999
 21
95.0
 31
0.0
  0
LINE
  5
F4
  8
0
 10
97.61999999999999
 20
95.0
 30
0.0
 11
92.61999999999998
 21
95.0
 31
0.0
  0
LINE
  5
F5
  8
0
 10
92.61999999999998
 20
95.0
 30
0.0
 11
92.61999999999998
 21
90.0
 31
0.0
  0
LINE
  5
F6
  8
0
 10
97.61999999999999
 20
84.99999999999997
 30
0.0
 11
92.61999999999998
 21
84.99999999999997
 31
0.0
  0
LINE
  5
F7
  8
0
 10
92.61999999999998
 20
84.99999999999997
 30
0.0
 11
92.61999999999998
 21
90.0
 31
0.0
  0
LINE
  5
F8
  8
0
 10
97.61999999999999
 20
84.99999999999997
 30
0.0
 11
97.61999999999999
 21
90.0
 31
0.0
  0
LINE
  5
F9
  8
0
 10
97.61999999999999
 20
15.0
 30
0.0
 11
97.61999999999999
 21
20.0
 31
0.0
  0
LINE
  5
FA
  8
0
 10
97.61999999999999
 20
20.0
 30
0.0
 11
92.62000000000003
 21
20.0
 31
0.0
  0
LINE
  5
FB
  8
0
 10
92.62000000000003
 20
20.0
 30
0.0
 11
92.62000000000003
 21
15.0
 31
0.0
  0
LINE
  5
FC
  8
0
 10
97.61999999999999
 20
15.0
 30
0.0
 11
97.61999999999999
 21
10.00000000000005
 31
0.0
  0
LINE
  5
FD
  8
0
 10
97.61999999999999
 20
10.00000000000005
 30
0.0
 11
92.62000000000003
 21
10.00000000000005
 31
0.0
  0
LINE
  5
FE
  8
0
 10
92.62000000000003
 20
10.00000000000006
 30
0.0
 11
92.62000000000003
 21
15.0
 31
0.0
  0
LINE
  5
FF
  8
0
 10
107.5
 20
236.44
 30
0.0
 11
107.5
 21
244.69
 31
0.0
  0
LINE
  5
100
  8
0
 10
109.25
 20
246.4400000000001
 30
0.0
 11
125.75
 21
246.4400000000001
 31
0.0
  0
LINE
  5
101
  8
0
 10
127.5
 20
244.6900000000001
 30
0.0
 11
127.5
 21
236.44
 31
0.0
  0
LINE
  5
102
  8
0
 10
190.0
 20
236.44
 30
0.0
 11
127.5
 21
236.44
 31
0.0
  0
LINE
  5
103
  8
0
 10
107.5
 20
236.44
 30
0.0
 11
-5.000000000000004
 21
236.44
 31
0.0
  0
ARC
  5
104
  8
0
 10
125.75
 20
244.69
 30
0.0
 40
1.750000000000002
 50
0.0
 51
90.0
  0
ARC
  5
105
  8
0
 10
109.25
 20
244.69
 30
0.0
 40
1.750000000000002
 50
90.0
 51
180.0
  0
LINE
  5
106
  8
0
 10
-4.999999999999996
 20
141.44
 30
0.0
 11
-4.999999999999995
 21
176.44
 31
0.0
  0
LINE
  5
107
  8
0
 10
-4.999999999999995
 20
196.44
 30
0.0
 11
-4.999999999999994
 21
236.44
 31
0.0
  0
LINE
  5
108
  8
0
 10
240.0
 20
206.44
 30
0.0
 11
240.0
 21
196.44
 31
0.0
  0
LINE
  5
109
  8
0
 10
240.0
 20
176.4400000000001
 30
0.0
 11
240.0
 21
141.44
 31
0.0
  0
LINE
  5
10A
  8
0
 10
245.0
 20
186.4400000000001
 30
0.0
 11
245.0
 21
196.4400000000001
 31
0.0
  0
LINE
  5
10B
  8
0
 10
245.0
 20
196.4400000000001
 30
0.0
 11
240.0
 21
196.4400000000001
 31
0.0
  0
LINE
  5
10C
  8
0
 10
245.0
 20
186.4400000000001
 30
0.0
 11
245.0
 21
176.4400000000001
 31
0.0
  0
LINE
  5
10D
  8
0
 10
245.0
 20
176.4400000000001
 30
0.0
 11
240.0
 21
176.4400000000001
 31
0.0
  0
LINE
  5
10E
  8
0
 10
-9.999999999999995
 20
186.4400000000001
 30
0.0
 11
-9.999999999999995
 21
196.4400000000001
 31
0.0
  0
LINE
  5
10F
  8
0
 10
-9.999999999999995
 20
196.4400000000001
 30
0.0
 11
-4.999999999999995
 21
196.4400000000001
 31
0.0
  0
LINE
  5
110
  8
0
 10
-9.999999999999995
 20
186.4400000000001
 30
0.0
 11
-9.999999999999995
 21
176.4400000000001
 31
0.0
  0
LINE
  5
111
  8
0
 10
-9.999999999999995
 20
176.4400000000001
 30
0.0
 11
-4.999999999999995
 21
176.4400000000001
 31
0.0
  0
LINE
  5
112
  8
0
 10
240.0
 20
236.44
 30
0.0
 11
240.0
 21
206.44
 31
0.0
  0
LINE
  5
113
  8
0
 10
190.0000000000001
 20
236.44
 30
0.0
 11
240.0000000000001
 21
236.44
 31
0.0
  0
LINE
  5
114
  8
0
 10
45.0000000000001
 20
148.4399999999998
 30
0.0
 11
45.00000000000009
 21
153.4399999999998
 31
0.0
  0
LINE
  5
115
  8
0
 10
45.00000000000016
 20
153.4399999999998
 30
0.0
 11
65.00000000000014
 21
153.4399999999999
 31
0.0
  0
LINE
  5
116
  8
0
 10
65.0000000000001
 20
153.4399999999999
 30
0.0
 11
65.00000000000011
 21
148.4399999999999
 31
0.0
  0
LINE
  5
117
  8
0
 10
65.0000000000001
 20
148.4399999999999
 30
0.0
 11
45.00000000000011
 21
148.4399999999998
 31
0.0
  0
LINE
  5
118
  8
0
 10
125.0000000000001
 20
148.4400000000001
 30
0.0
 11
125.0000000000001
 21
153.4400000000001
 31
0.0
  0
LINE
  5
119
  8
0
 10
125.0000000000001
 20
153.4400000000001
 30
0.0
 11
145.0000000000001
 21
153.4400000000001
 31
0.0
  0
LINE
  5
11A
  8
0
 10
145.0000000000001
 20
153.4400000000001
 30
0.0
 11
145.0000000000001
 21
148.4400000000001
 31
0.0
  0
LINE
  5
11B
  8
0
 10
145.0000000000001
 20
148.4400000000001
 30
0.0
 11
125.0000000000001
 21
148.4400000000001
 31
0.0
  0
LINE
  5
11C
  8
0
 10
45.0000000000001
 20
163.4399999999998
 30
0.0
 11
45.00000000000009
 21
168.4399999999998
 31
0.0
  0
LINE
  5
11D
  8
0
 10
45.00000000000005
 20
168.4399999999998
 30
0.0
 11
65.00000000000003
 21
168.4399999999999
 31
0.0
  0
LINE
  5
11E
  8
0
 10
65.00000000000004
 20
168.4399999999999
 30
0.0
 11
65.00000000000006
 21
163.4399999999999
 31
0.0
  0
LINE
  5
11F
  8
0
 10
65.00000000000004
 20
163.4399999999998
 30
0.0
 11
45.00000000000006
 21
163.4399999999997
 31
0.0
  0
LINE
  5
120
  8
0
 10
125.0000000000001
 20
163.4400000000001
 30
0.0
 11
125.0
 21
168.4400000000001
 31
0.0
  0
LINE
  5
121
  8
0
 10
125.0
 20
168.4400000000001
 30
0.0
 11
145.0
 21
168.4400000000001
 31
0.0
  0
LINE
  5
122
  8
0
 10
145.0000000000001
 20
168.4400000000001
 30
0.0
 11
145.0000000000001
 21
163.4400000000001
 31
0.0
  0
LINE
  5
123
  8
0
 10
145.0000000000001
 20
163.4400000000001
 30
0.0
 11
125.0000000000001
 21
163.44
 31
0.0
  0
LINE
  5
124
  8
0
 10
45.00000000000002
 20
178.4399999999998
 30
0.0
 11
45.00000000000001
 21
183.4399999999998
 31
0.0
  0
LINE
  5
125
  8
0
 10
44.99999999999999
 20
183.4399999999998
 30
0.0
 11
64.99999999999997
 21
183.4399999999999
 31
0.0
  0
LINE
  5
126
  8
0
 10
65.00000000000001
 20
183.4399999999999
 30
0.0
 11
65.00000000000003
 21
178.4399999999999
 31
0.0
  0
LINE
  5
127
  8
0
 10
65.0
 20
178.4399999999999
 30
0.0
 11
45.00000000000001
 21
178.4399999999998
 31
0.0
  0
LINE
  5
128
  8
0
 10
125.0
 20
178.4400000000001
 30
0.0
 11
125.0
 21
183.4400000000001
 31
0.0
  0
LINE
  5
129
  8
0
 10
125.0
 20
183.4400000000001
 30
0.0
 11
145.0
 21
183.4400000000002
 31
0.0
  0
LINE
  5
12A
  8
0
 10
145.0
 20
183.4400000000002
 30
0.0
 11
145.0
 21
178.4400000000002
 31
0.0
  0
LINE
  5
12B
  8
0
 10
145.0000000000001
 20
178.4400000000002
 30
0.0
 11
125.0000000000001
 21
178.4400000000001
 31
0.0
  0
LINE
  5
12C
  8
0
 10
44.99999999999994
 20
193.4399999999998
 30
0.0
 11
44.99999999999992
 21
198.4399999999998
 31
0.0
  0
LINE
  5
12D
  8
0
 10
44.99999999999999
 20
198.4399999999998
 30
0.0
 11
64.99999999999997
 21
198.4399999999999
 31
0.0
  0
LINE
  5
12E
  8
0
 10
64.99999999999993
 20
198.4399999999999
 30
0.0
 11
64.99999999999994
 21
193.4399999999999
 31
0.0
  0
LINE
  5
12F
  8
0
 10
64.99999999999994
 20
193.4399999999999
 30
0.0
 11
44.99999999999996
 21
193.4399999999998
 31
0.0
  0
LINE
  5
130
  8
0
 10
124.9999999999999
 20
193.44
 30
0.0
 11
124.9999999999999
 21
198.44
 31
0.0
  0
LINE
  5
131
  8
0
 10
124.9999999999999
 20
198.4400000000001
 30
0.0
 11
145.0
 21
198.4400000000001
 31
0.0
  0
LINE
  5
132
  8
0
 10
144.9999999999999
 20
198.4400000000002
 30
0.0
 11
145.0
 21
193.4400000000002
 31
0.0
  0
LINE
  5
133
  8
0
 10
145.0
 20
193.4400000000001
 30
0.0
 11
125.0
 21
193.4400000000001
 31
0.0
  0
LINE
  5
134
  8
0
 10
117.5
 20
131.44
 30
0.0
 11
127.5
 21
131.44
 31
0.0
  0
LINE
  5
135
  8
0
 10
127.5
 20
131.44
 30
0.0
 11
127.5
 21
136.44
 31
0.0
  0
LINE
  5
136
  8
0
 10
117.5
 20
131.44
 30
0.0
 11
107.5
 21
131.44
 31
0.0
  0
LINE
  5
137
  8
0
 10
107.5
 20
131.44
 30
0.0
 11
107.5
 21
136.44
 31
0.0
  0
LINE
  5
138
  8
0
 10
15.00000000000001
 20
136.44
 30
0.0
 11
107.5
 21
136.44
 31
0.0
  0
LINE
  5
139
  8
0
 10
127.5
 20
136.44
 30
0.0
 11
220.0
 21
136.44
 31
0.0
  0
LINE
  5
13A
  8
0
 10
240.0
 20
136.44
 30
0.0
 11
240.0
 21
141.44
 31
0.0
  0
LINE
  5
13B
  8
0
 10
220.0
 20
136.44
 30
0.0
 11
240.0
 21
136.44
 31
0.0
  0
LINE
  5
13C
  8
0
 10
14.99999999999985
 20
231.4399999999997
 30
0.0
 11
14.99999999999987
 21
226.4399999999997
 31
0.0
  0
LINE
  5
13D
  8
0
 10
14.99999999999985
 20
226.4399999999997
 30
0.0
 11
24.99999999999986
 21
226.4399999999997
 31
0.0
  0
LINE
  5
13E
  8
0
 10
24.99999999999988
 20
226.4399999999998
 30
0.0
 11
24.99999999999987
 21
231.4399999999998
 31
0.0
  0
LINE
  5
13F
  8
0
 10
24.99999999999986
 20
231.4399999999998
 30
0.0
 11
14.99999999999985
 21
231.4399999999998
 31
0.0
  0
LINE
  5
140
  8
0
 10
117.4999999999999
 20
226.4400000000001
 30
0.0
 11
112.4999999999999
 21
226.4400000000001
 31
0.0
  0
LINE
  5
141
  8
0
 10
112.4999999999999
 20
226.44
 30
0.0
 11
112.4999999999998
 21
231.44
 31
0.0
  0
LINE
  5
142
  8
0
 10
112.4999999999998
 20
231.4400000000001
 30
0.0
 11
117.4999999999998
 21
231.4400000000001
 31
0.0
  0
LINE
  5
143
  8
0
 10
117.4999999999998
 20
226.4400000000001
 30
0.0
 11
122.4999999999998
 21
226.4400000000001
 31
0.0
  0
LINE
  5
144
  8
0
 10
122.4999999999999
 20
226.4400000000001
 30
0.0
 11
122.4999999999999
 21
231.4400000000001
 31
0.0
  0
LINE
  5
145
  8
0
 10
122.4999999999999
 20
231.4400000000001
 30
0.0
 11
117.4999999999999
 21
231.4400000000001
 31
0.0
  0
LINE
  5
146
  8
0
 10
-4.999999999999996
 20
136.44
 30
0.0
 11
-4.999999999999996
 21
141.44
 31
0.0
  0
LINE
  5
147
  8
0
 10
14.99999999999997
 20
136.44
 30
0.0
 11
-5.000000000000027
 21
136.44
 31
0.0
  0
LINE
  5
148
  8
0
 10
219.9999999999999
 20
231.4400000000005
 30
0.0
 11
219.9999999999999
 21
226.4400000000005
 31
0.0
  0
LINE
  5
149
  8
0
 10
219.9999999999999
 20
226.4400000000005
 30
0.0
 11
209.9999999999999
 21
226.4400000000005
 31
0.0
  0
LINE
  5
14A
  8
0
 10
209.9999999999999
 20
226.4400000000004
 30
0.0
 11
209.9999999999999
 21
231.4400000000004
 31
0.0
  0
LINE
  5
14B
  8
0
 10
209.9999999999999
 20
231.4400000000005
 30
0.0
 11
219.9999999999999
 21
231.4400000000005
 31
0.0
  0
LINE
  5
14C
  8
0
 10
107.5
 20
362.99
 30
0.0
 11
107.5
 21
371.24
 31
0.0
  0
LINE
  5
14D
  8
0
 10
109.25
 20
372.9900000000001
 30
0.0
 11
125.75
 21
372.9900000000001
 31
0.0
  0
LINE
  5
14E
  8
0
 10
127.5
 20
371.24
 30
0.0
 11
127.5
 21
362.99
 31
0.0
  0
LINE
  5
14F
  8
0
 10
190.0
 20
362.99
 30
0.0
 11
127.5
 21
362.99
 31
0.0
  0
LINE
  5
150
  8
0
 10
107.5
 20
362.99
 30
0.0
 11
-4.99999999999999
 21
362.99
 31
0.0
  0
ARC
  5
151
  8
0
 10
125.75
 20
371.24
 30
0.0
 40
1.750000000000002
 50
0.0
 51
90.0
  0
ARC
  5
152
  8
0
 10
109.25
 20
371.24
 30
0.0
 40
1.750000000000002
 50
90.0
 51
180.0
  0
LINE
  5
153
  8
0
 10
-4.999999999999992
 20
267.9900000000001
 30
0.0
 11
-4.999999999999991
 21
302.9900000000001
 31
0.0
  0
LINE
  5
154
  8
0
 10
-4.999999999999991
 20
322.9900000000001
 30
0.0
 11
-4.99999999999999
 21
362.9900000000001
 31
0.0
  0
LINE
  5
155
  8
0
 10
240.0
 20
332.9900000000001
 30
0.0
 11
240.0
 21
322.99
 31
0.0
  0
LINE
  5
156
  8
0
 10
240.0
 20
302.9900000000001
 30
0.0
 11
240.0
 21
267.9900000000001
 31
0.0
  0
LINE
  5
157
  8
0
 10
245.0
 20
312.9900000000001
 30
0.0
 11
245.0
 21
322.9900000000001
 31
0.0
  0
LINE
  5
158
  8
0
 10
245.0
 20
322.9900000000001
 30
0.0
 11
240.0
 21
322.9900000000001
 31
0.0
  0
LINE
  5
159
  8
0
 10
245.0
 20
312.9900000000001
 30
0.0
 11
245.0
 21
302.9900000000001
 31
0.0
  0
LINE
  5
15A
  8
0
 10
245.0
 20
302.9900000000001
 30
0.0
 11
240.0
 21
302.9900000000001
 31
0.0
  0
LINE
  5
15B
  8
0
 10
-9.999999999999991
 20
312.9900000000001
 30
0.0
 11
-9.999999999999991
 21
322.9900000000001
 31
0.0
  0
LINE
  5
15C
  8
0
 10
-9.999999999999991
 20
322.9900000000001
 30
0.0
 11
-4.999999999999991
 21
322.9900000000001
 31
0.0
  0
LINE
  5
15D
  8
0
 10
-9.999999999999991
 20
312.9900000000001
 30
0.0
 11
-9.999999999999991
 21
302.9900000000001
 31
0.0
  0
LINE
  5
15E
  8
0
 10
-9.999999999999991
 20
302.9900000000001
 30
0.0
 11
-4.999999999999991
 21
302.9900000000001
 31
0.0
  0
LINE
  5
15F
  8
0
 10
240.0
 20
362.99
 30
0.0
 11
240.0
 21
332.99
 31
0.0
  0
LINE
  5
160
  8
0
 10
190.0000000000001
 20
362.99
 30
0.0
 11
240.0000000000001
 21
362.99
 31
0.0
  0
LINE
  5
161
  8
0
 10
45.00000000000002
 20
274.9900000000002
 30
0.0
 11
45.00000000000004
 21
279.9900000000002
 31
0.0
  0
LINE
  5
162
  8
0
 10
45.00000000000006
 20
279.9900000000002
 30
0.0
 11
65.00000000000006
 21
279.9900000000001
 31
0.0
  0
LINE
  5
163
  8
0
 10
65.00000000000003
 20
279.9900000000001
 30
0.0
 11
65.00000000000001
 21
274.9900000000001
 31
0.0
  0
LINE
  5
164
  8
0
 10
65.00000000000001
 20
274.9900000000001
 30
0.0
 11
45.00000000000003
 21
274.9900000000002
 31
0.0
  0
LINE
  5
165
  8
0
 10
125.0
 20
274.99
 30
0.0
 11
125.0000000000001
 21
279.99
 31
0.0
  0
LINE
  5
166
  8
0
 10
125.0
 20
279.99
 30
0.0
 11
145.0
 21
279.9899999999999
 31
0.0
  0
LINE
  5
167
  8
0
 10
145.0
 20
279.9899999999999
 30
0.0
 11
145.0
 21
274.9899999999999
 31
0.0
  0
LINE
  5
168
  8
0
 10
145.0
 20
274.9899999999999
 30
0.0
 11
125.0
 21
274.99
 31
0.0
  0
LINE
  5
169
  8
0
 10
45.00000000000007
 20
289.9900000000002
 30
0.0
 11
45.00000000000008
 21
294.9900000000002
 31
0.0
  0
LINE
  5
16A
  8
0
 10
45.00000000000009
 20
294.9900000000002
 30
0.0
 11
65.00000000000009
 21
294.9900000000001
 31
0.0
  0
LINE
  5
16B
  8
0
 10
65.00000000000006
 20
294.9900000000002
 30
0.0
 11
65.00000000000004
 21
289.9900000000002
 31
0.0
  0
LINE
  5
16C
  8
0
 10
65.00000000000007
 20
289.9900000000001
 30
0.0
 11
45.00000000000008
 21
289.9900000000002
 31
0.0
  0
LINE
  5
16D
  8
0
 10
125.0000000000001
 20
289.99
 30
0.0
 11
125.0000000000001
 21
294.99
 31
0.0
  0
LINE
  5
16E
  8
0
 10
125.0000000000001
 20
294.99
 30
0.0
 11
145.0000000000001
 21
294.9899999999999
 31
0.0
  0
LINE
  5
16F
  8
0
 10
145.0000000000001
 20
294.9899999999999
 30
0.0
 11
145.0000000000001
 21
289.9899999999999
 31
0.0
  0
LINE
  5
170
  8
0
 10
145.0
 20
289.9899999999999
 30
0.0
 11
125.0
 21
289.99
 31
0.0
  0
LINE
  5
171
  8
0
 10
45.0000000000001
 20
304.9900000000002
 30
0.0
 11
45.00000000000011
 21
309.9900000000002
 31
0.0
  0
LINE
  5
172
  8
0
 10
45.00000000000014
 20
309.9900000000003
 30
0.0
 11
65.00000000000011
 21
309.9900000000002
 31
0.0
  0
LINE
  5
173
  8
0
 10
65.0000000000001
 20
309.9900000000002
 30
0.0
 11
65.00000000000009
 21
304.9900000000002
 31
0.0
  0
LINE
  5
174
  8
0
 10
65.0000000000001
 20
304.9900000000001
 30
0.0
 11
45.00000000000011
 21
304.9900000000002
 31
0.0
  0
LINE
  5
175
  8
0
 10
125.0000000000001
 20
304.99
 30
0.0
 11
125.0000000000001
 21
309.99
 31
0.0
  0
LINE
  5
176
  8
0
 10
125.0000000000001
 20
309.9900000000001
 30
0.0
 11
145.0000000000001
 21
309.99
 31
0.0
  0
LINE
  5
177
  8
0
 10
145.0000000000001
 20
309.9899999999999
 30
0.0
 11
145.0000000000001
 21
304.9899999999999
 31
0.0
  0
LINE
  5
178
  8
0
 10
145.0000000000001
 20
304.99
 30
0.0
 11
125.0000000000001
 21
304.9900000000001
 31
0.0
  0
LINE
  5
179
  8
0
 10
45.00000000000016
 20
319.9900000000003
 30
0.0
 11
45.00000000000017
 21
324.9900000000003
 31
0.0
  0
LINE
  5
17A
  8
0
 10
45.00000000000018
 20
324.9900000000002
 30
0.0
 11
65.00000000000017
 21
324.9900000000002
 31
0.0
  0
LINE
  5
17B
  8
0
 10
65.00000000000017
 20
324.9900000000001
 30
0.0
 11
65.00000000000016
 21
319.9900000000001
 31
0.0
  0
LINE
  5
17C
  8
0
 10
65.00000000000014
 20
319.9900000000002
 30
0.0
 11
45.00000000000015
 21
319.9900000000002
 31
0.0
  0
LINE
  5
17D
  8
0
 10
125.0000000000001
 20
319.99
 30
0.0
 11
125.0000000000001
 21
324.99
 31
0.0
  0
LINE
  5
17E
  8
0
 10
125.0000000000001
 20
324.99
 30
0.0
 11
145.0000000000001
 21
324.99
 31
0.0
  0
LINE
  5
17F
  8
0
 10
145.0000000000001
 20
324.99
 30
0.0
 11
145.0000000000001
 21
319.99
 31
0.0
  0
LINE
  5
180
  8
0
 10
145.0000000000001
 20
319.99
 30
0.0
 11
125.0000000000001
 21
319.99
 31
0.0
  0
LINE
  5
181
  8
0
 10
117.5
 20
257.9900000000001
 30
0.0
 11
127.5
 21
257.9900000000001
 31
0.0
  0
LINE
  5
182
  8
0
 10
127.5
 20
257.9900000000001
 30
0.0
 11
127.5
 21
262.9900000000001
 31
0.0
  0
LINE
  5
183
  8
0
 10
117.5
 20
257.9900000000001
 30
0.0
 11
107.5
 21
257.9900000000001
 31
0.0
  0
LINE
  5
184
  8
0
 10
107.5
 20
257.9900000000001
 30
0.0
 11
107.5
 21
262.9900000000001
 31
0.0
  0
LINE
  5
185
  8
0
 10
15.00000000000001
 20
262.9900000000001
 30
0.0
 11
107.5
 21
262.9900000000001
 31
0.0
  0
LINE
  5
186
  8
0
 10
127.5
 20
262.9900000000001
 30
0.0
 11
220.0
 21
262.9900000000001
 31
0.0
  0
LINE
  5
187
  8
0
 10
240.0
 20
262.9900000000001
 30
0.0
 11
240.0
 21
267.9900000000001
 31
0.0
  0
LINE
  5
188
  8
0
 10
220.0
 20
262.9900000000001
 30
0.0
 11
240.0
 21
262.9900000000001
 31
0.0
  0
LINE
  5
189
  8
0
 10
15.00000000000022
 20
357.9900000000004
 30
0.0
 11
15.0000000000002
 21
352.9900000000004
 31
0.0
  0
LINE
  5
18A
  8
0
 10
15.00000000000019
 20
352.9900000000004
 30
0.0
 11
25.0000000000002
 21
352.9900000000003
 31
0.0
  0
LINE
  5
18B
  8
0
 10
25.00000000000026
 20
352.9900000000004
 30
0.0
 11
25.00000000000027
 21
357.9900000000004
 31
0.0
  0
LINE
  5
18C
  8
0
 10
25.00000000000024
 20
357.9900000000003
 30
0.0
 11
15.00000000000023
 21
357.9900000000004
 31
0.0
  0
LINE
  5
18D
  8
0
 10
117.5000000000002
 20
352.99
 30
0.0
 11
112.5000000000002
 21
352.9900000000001
 31
0.0
  0
LINE
  5
18E
  8
0
 10
112.5000000000002
 20
352.99
 30
0.0
 11
112.5000000000002
 21
357.99
 31
0.0
  0
LINE
  5
18F
  8
0
 10
112.5000000000002
 20
357.9900000000001
 30
0.0
 11
117.5000000000002
 21
357.9900000000001
 31
0.0
  0
LINE
  5
190
  8
0
 10
117.5000000000001
 20
352.99
 30
0.0
 11
122.5000000000001
 21
352.99
 31
0.0
  0
LINE
  5
191
  8
0
 10
122.5000000000002
 20
352.99
 30
0.0
 11
122.5000000000002
 21
357.99
 31
0.0
  0
LINE
  5
192
  8
0
 10
122.5000000000002
 20
357.9900000000001
 30
0.0
 11
117.5000000000002
 21
357.9900000000001
 31
0.0
  0
LINE
  5
193
  8
0
 10
-4.999999999999993
 20
262.9900000000001
 30
0.0
 11
-4.999999999999993
 21
267.9900000000001
 31
0.0
  0
LINE
  5
194
  8
0
 10
14.99999999999997
 20
262.9900000000001
 30
0.0
 11
-5.000000000000023
 21
262.9900000000001
 31
0.0
  0
LINE
  5
195
  8
0
 10
220.0000000000002
 20
357.9899999999998
 30
0.0
 11
220.0000000000002
 21
352.9899999999998
 31
0.0
  0
LINE
  5
196
  8
0
 10
220.0000000000002
 20
352.9899999999998
 30
0.0
 11
210.0000000000002
 21
352.9899999999998
 31
0.0
  0
LINE
  5
197
  8
0
 10
210.0000000000002
 20
352.9899999999998
 30
0.0
 11
210.0000000000002
 21
357.9899999999998
 31
0.0
  0
LINE
  5
198
  8
0
 10
210.0000000000002
 20
357.9899999999998
 30
0.0
 11
220.0000000000002
 21
357.9899999999998
 31
0.0
  0
LINE
  5
199
  8
0
 10
270.93
 20
251.71
 30
0.0
 11
270.93
 21
321.71
 31
0.0
  0
LINE
  5
19A
  8
0
 10
270.93
 20
344.21
 30
0.0
 11
270.93
 21
321.7099999999999
 31
0.0
  0
LINE
  5
19B
  8
0
 10
350.9300000000001
 20
344.21
 30
0.0
 11
290.93
 21
344.21
 31
0.0
  0
LINE
  5
19C
  8
0
 10
270.93
 20
229.21
 30
0.0
 11
270.93
 21
251.7099999999999
 31
0.0
  0
LINE
  5
19D
  8
0
 10
350.9300000000001
 20
229.21
 30
0.0
 11
290.93
 21
229.21
 31
0.0
  0
CIRCLE
  5
19E
  8
0
 10
361.93
 20
317.71
 30
0.0
 40
2.0
  0
CIRCLE
  5
19F
  8
0
 10
361.93
 20
255.71
 30
0.0
 40
2.0
  0
CIRCLE
  5
1A0
  8
0
 10
285.43
 20
317.7099999999998
 30
0.0
 40
2.000000000000002
  0
CIRCLE
  5
1A1
  8
0
 10
285.4300000000001
 20
255.71
 30
0.0
 40
2.000000000000002
  0
LINE
  5
1A2
  8
0
 10
370.9300000000001
 20
314.21
 30
0.0
 11
370.9300000000001
 21
259.21
 31
0.0
  0
LINE
  5
1A3
  8
0
 10
270.93
 20
344.2099999999999
 30
0.0
 11
270.93
 21
349.2099999999999
 31
0.0
  0
LINE
  5
1A4
  8
0
 10
270.93
 20
349.21
 30
0.0
 11
290.93
 21
349.21
 31
0.0
  0
LINE
  5
1A5
  8
0
 10
290.9299999999999
 20
349.21
 30
0.0
 11
290.9299999999999
 21
344.21
 31
0.0
  0
LINE
  5
1A6
  8
0
 10
370.9300000000001
 20
344.21
 30
0.0
 11
370.9300000000001
 21
349.21
 31
0.0
  0
LINE
  5
1A7
  8
0
 10
370.9300000000001
 20
349.21
 30
0.0
 11
350.9300000000001
 21
349.21
 31
0.0
  0
LINE
  5
1A8
  8
0
 10
350.93
 20
349.21
 30
0.0
 11
350.93
 21
344.21
 31
0.0
  0
LINE
  5
1A9
  8
0
 10
370.9300000000001
 20
229.21
 30
0.0
 11
370.9300000000001
 21
224.21
 31
0.0
  0
LINE
  5
1AA
  8
0
 10
370.9300000000001
 20
224.21
 30
0.0
 11
350.9300000000001
 21
224.21
 31
0.0
  0
LINE
  5
1AB
  8
0
 10
350.93
 20
224.21
 30
0.0
 11
350.93
 21
229.21
 31
0.0
  0
LINE
  5
1AC
  8
0
 10
270.93
 20
229.21
 30
0.0
 11
270.93
 21
224.21
 31
0.0
  0
LINE
  5
1AD
  8
0
 10
270.93
 20
224.21
 30
0.0
 11
290.93
 21
224.21
 31
0.0
  0
LINE
  5
1AE
  8
0
 10
290.93
 20
224.21
 30
0.0
 11
290.93
 21
229.21
 31
0.0
  0
CIRCLE
  5
1AF
  8
0
 10
320.93
 20
286.71
 30
0.0
 40
35.00357124637428
  0
LINE
  5
1B0
  8
0
 10
370.9300000000001
 20
314.21
 30
0.0
 11
390.9300000000001
 21
314.21
 31
0.0
  0
LINE
  5
1B1
  8
0
 10
390.9300000000001
 20
314.21
 30
0.0
 11
390.9300000000001
 21
344.21
 31
0.0
  0
LINE
  5
1B2
  8
0
 10
390.9300000000001
 20
344.21
 30
0.0
 11
370.9300000000001
 21
344.21
 31
0.0
  0
LINE
  5
1B3
  8
0
 10
370.9300000000001
 20
259.21
 30
0.0
 11
390.9300000000001
 21
259.21
 31
0.0
  0
LINE
  5
1B4
  8
0
 10
390.9300000000001
 20
259.21
 30
0.0
 11
390.9300000000001
 21
229.21
 31
0.0
  0
LINE
  5
1B5
  8
0
 10
390.9300000000001
 20
229.21
 30
0.0
 11
370.9300000000001
 21
229.21
 31
0.0
  0
LINE
  5
1B6
  8
0
 10
220.0
 20
312.9899999999998
 30
0.0
 11
219.9999999999999
 21
295.9799999999998
 31
0.0
  0
LINE
  5
1B7
  8
0
 10
218.0099999999999
 20
293.9899999999997
 30
0.0
 11
193.99
 21
293.9899999999998
 31
0.0
  0
LINE
  5
1B8
  8
0
 10
191.9999999999999
 20
295.9799999999999
 30
0.0
 11
192.0
 21
312.9899999999999
 31
0.0
  0
LINE
  5
1B9
  8
0
 10
192.0
 20
312.9899999999999
 30
0.0
 11
220.0
 21
312.9899999999998
 31
0.0
  0
CIRCLE
  5
1BA
  8
0
 10
186.0
 20
303.4899999999999
 30
0.0
 40
2.0
  0
CIRCLE
  5
1BB
  8
0
 10
226.0
 20
303.4899999999997
 30
0.0
 40
2.0
  0
LINE
  5
1BC
  8
0
 10
220.0
 20
295.9799999999998
 30
0.0
 11
218.0099999999999
 21
293.9899999999997
 31
0.0
  0
LINE
  5
1BD
  8
0
 10
191.9999999999999
 20
295.9799999999999
 30
0.0
 11
193.99
 21
293.9899999999998
 31
0.0
  0
LINE
  5
1BE
  8
0
 10
60.00000000000018
 20
352.9900000000002
 30
0.0
 11
60.00000000000013
 21
333.9999999999999
 31
0.0
  0
LINE
  5
1BF
  8
0
 10
60.00000000000016
 20
333.9999999999999
 30
0.0
 11
107.5000000000023
 21
333.9999999999998
 31
0.0
  0
LINE
  5
1C0
  8
0
 10
107.5000000000023
 20
333.9999999999998
 30
0.0
 11
107.5000000000002
 21
352.9900000000001
 31
0.0
  0
LINE
  5
1C1
  8
0
 10
107.5000000000002
 20
352.9900000000001
 30
0.0
 11
60.00000000000022
 21
352.9900000000002
 31
0.0
  0
LINE
  5
1C2
  8
0
 10
130.0000000000002
 20
352.99
 30
0.0
 11
130.0000000000002
 21
339.0
 31
0.0
  0
LINE
  5
1C3
  8
0
 10
130.0000000000002
 20
339.0
 30
0.0
 11
155.0000000000002
 21
339.0000000000001
 31
0.0
  0
LINE
  5
1C4
  8
0
 10
155.0000000000002
 20
339.0000000000001
 30
0.0
 11
155.0000000000002
 21
352.9899999999999
 31
0.0
  0
LINE
  5
1C5
  8
0
 10
155.0000000000002
 20
352.9899999999999
 30
0.0
 11
130.0000000000002
 21
352.99
 31
0.0
  0
CIRCLE
  5
1C6
  8
0
 10
14.99999999999998
 20
275.7700000000003
 30
0.0
 40
3.5
  0
CIRCLE
  5
1C7
  8
0
 10
307.349279748292
 20
72.31254326381661
 30
0.0
 40
1.749999999999994
  0
CIRCLE
  5
1C8
  8
0
 10
347.6543662759252
 20
72.3125432638166
 30
0.0
 40
1.750000000000062
  0
CIRCLE
  5
1C9
  8
0
 10
347.6543662759252
 20
32.00745673618341
 30
0.0
 40
1.749999999999986
  0
CIRCLE
  5
1CA
  8
0
 10
307.349279748292
 20
32.00745673618335
 30
0.0
 40
1.750000000000068
  0
ARC
  5
1CB
  8
0
 10
327.5018230121086
 20
52.15999999999998
 30
0.0
 40
19.99999999999998
 50
275.7391704772667
 51
354.2608295227333
  0
ARC
  5
1CC
  8
0
 10
327.5018230121086
 20
52.15999999999998
 30
0.0
 40
19.99999999999998
 50
185.7391704772667
 51
264.2608295227332
  0
LINE
  5
1CD
  8
0
 10
325.5018230121086
 20
27.24012841124575
 30
0.0
 11
325.5018230121086
 21
29.74906516898501
 31
0.0
  0
ARC
  5
1CE
  8
0
 10
327.5018230121086
 20
52.15999999999998
 30
0.0
 40
17.5
 50
277.662255660766
 51
352.3377443392325
  0
ARC
  5
1CF
  8
0
 10
327.5018230121086
 20
52.15999999999998
 30
0.0
 40
12.5
 50
99.20689622134567
 51
170.793103778654
  0
ARC
  5
1D0
  8
0
 10
327.5018230121086
 20
52.15999999999998
 30
0.0
 40
20.0
 50
95.7391704772667
 51
174.2608295227332
  0
ARC
  5
1D1
  8
0
 10
327.5018230121086
 20
52.15999999999998
 30
0.0
 40
22.5
 50
95.09968891421718
 51
174.9003110857826
  0
ARC
  5
1D2
  8
0
 10
327.5018230121086
 20
52.15999999999998
 30
0.0
 40
25.00000000000005
 50
94.58856573578552
 51
175.4114342642142
  0
ARC
  5
1D3
  8
0
 10
327.5018230121086
 20
52.15999999999998
 30
0.0
 40
12.5
 50
9.206896221345973
 51
80.79310377865383
  0
ARC
  5
1D4
  8
0
 10
327.5018230121086
 20
52.15999999999998
 30
0.0
 40
20.0
 50
5.739170477266783
 51
84.26082952273332
  0
ARC
  5
1D5
  8
0
 10
327.5018230121086
 20
52.15999999999998
 30
0.0
 40
22.5
 50
5.099688914217392
 51
84.9003110857825
  0
ARC
  5
1D6
  8
0
 10
327.5018230121086
 20
52.15999999999998
 30
0.0
 40
25.00000000000005
 50
4.588565735785825
 51
85.41143426421407
  0
ARC
  5
1D7
  8
0
 10
327.5018230121086
 20
52.15999999999998
 30
0.0
 40
12.5
 50
189.2068962213458
 51
260.7931037786541
  0
ARC
  5
1D8
  8
0
 10
327.5018230121086
 20
52.15999999999998
 30
0.0
 40
12.5
 50
279.2068962213459
 51
350.7931037786542
  0
ARC
  5
1D9
  8
0
 10
327.5018230121086
 20
52.15999999999998
 30
0.0
 40
20.0
 50
185.7391704772667
 51
264.2608295227332
  0
ARC
  5
1DA
  8
0
 10
327.5018230121086
 20
52.15999999999998
 30
0.0
 40
20.0
 50
275.7391704772667
 51
354.2608295227333
  0
ARC
  5
1DB
  8
0
 10
327.5018230121086
 20
52.15999999999998
 30
0.0
 40
22.5
 50
185.0996889142173
 51
264.9003110857827
  0
ARC
  5
1DC
  8
0
 10
327.5018230121086
 20
52.15999999999998
 30
0.0
 40
22.5
 50
275.0996889142173
 51
354.9003110857827
  0
ARC
  5
1DD
  8
0
 10
327.5018230121086
 20
52.15999999999998
 30
0.0
 40
25.00000000000005
 50
184.5885657357858
 51
265.4114342642142
  0
ARC
  5
1DE
  8
0
 10
327.5018230121086
 20
52.15999999999998
 30
0.0
 40
25.00000000000005
 50
274.5885657357858
 51
355.4114342642142
  0
ARC
  5
1DF
  8
0
 10
327.5018230121086
 20
52.15999999999998
 30
0.0
 40
15.0
 50
277.6622556607661
 51
352.337744339234
  0
ARC
  5
1E0
  8
0
 10
327.5018230121086
 20
52.15999999999998
 30
0.0
 40
17.5
 50
96.5624278686338
 51
173.4375721313658
  0
ARC
  5
1E1
  8
0
 10
327.5018230121086
 20
52.15999999999998
 30
0.0
 40
17.5
 50
352.3377443392325
 51
353.4375721313659
  0
ARC
  5
1E2
  8
0
 10
327.5018230121086
 20
52.15999999999998
 30
0.0
 40
17.5
 50
6.562427868634143
 51
83.43757213136584
  0
ARC
  5
1E3
  8
0
 10
327.5018230121086
 20
52.15999999999998
 30
0.0
 40
17.5
 50
186.5624278686341
 51
263.4375721313662
  0
ARC
  5
1E4
  8
0
 10
327.5018230121086
 20
52.15999999999998
 30
0.0
 40
17.5
 50
276.5624278686342
 51
277.6622556607659
  0
LINE
  5
1E5
  8
0
 10
325.5018230121087
 20
74.57093483101495
 30
0.0
 11
325.5018230121087
 21
77.07987158875426
 31
0.0
  0
LINE
  5
1E6
  8
0
 10
329.5018230121086
 20
77.07987158875426
 30
0.0
 11
329.5018230121086
 21
74.57093483101494
 31
0.0
  0
LINE
  5
1E7
  8
0
 10
349.9127578431235
 20
54.15999999999998
 30
0.0
 11
352.4216946008628
 21
54.15999999999998
 31
0.0
  0
LINE
  5
1E8
  8
0
 10
352.4216946008628
 20
50.16
 30
0.0
 11
349.9127578431235
 21
50.16
 31
0.0
  0
LINE
  5
1E9
  8
0
 10
329.5018230121086
 20
29.74906516898502
 30
0.0
 11
329.5018230121086
 21
27.24012841124571
 31
0.0
  0
LINE
  5
1EA
  8
0
 10
325.5018230121087
 20
27.24012841124571
 30
0.0
 11
325.5018230121087
 21
29.74906516898501
 31
0.0
  0
LINE
  5
1EB
  8
0
 10
305.0908881810936
 20
50.16
 30
0.0
 11
302.5819514233543
 21
50.16
 31
0.0
  0
LINE
  5
1EC
  8
0
 10
302.5819514233543
 20
54.15999999999998
 30
0.0
 11
305.0908881810936
 21
54.15999999999998
 31
0.0
  0
LINE
  5
1ED
  8
0
 10
325.5018230121087
 20
64.49896267925307
 30
0.0
 11
325.5018230121087
 21
67.02606874731848
 31
0.0
  0
LINE
  5
1EE
  8
0
 10
325.5018230121087
 20
69.5453386507137
 30
0.0
 11
325.5018230121087
 21
72.05974874213238
 31
0.0
  0
LINE
  5
1EF
  8
0
 10
329.5018230121086
 20
72.05974874213237
 30
0.0
 11
329.5018230121086
 21
69.54533865071369
 31
0.0
  0
LINE
  5
1F0
  8
0
 10
329.5018230121086
 20
67.02606874731846
 30
0.0
 11
329.5018230121086
 21
64.49896267925305
 31
0.0
  0
LINE
  5
1F1
  8
0
 10
339.8407856913616
 20
54.15999999999998
 30
0.0
 11
342.367891759427
 21
54.15999999999998
 31
0.0
  0
LINE
  5
1F2
  8
0
 10
344.8871616628223
 20
54.15999999999998
 30
0.0
 11
347.401571754241
 21
54.15999999999998
 31
0.0
  0
LINE
  5
1F3
  8
0
 10
347.401571754241
 20
50.16
 30
0.0
 11
344.8871616628223
 21
50.16
 31
0.0
  0
LINE
  5
1F4
  8
0
 10
342.367891759427
 20
50.16
 30
0.0
 11
339.8407856913616
 21
50.16
 31
0.0
  0
LINE
  5
1F5
  8
0
 10
329.5018230121086
 20
39.82103732074692
 30
0.0
 11
329.5018230121086
 21
37.29393125268148
 31
0.0
  0
LINE
  5
1F6
  8
0
 10
329.5018230121086
 20
34.77466134928627
 30
0.0
 11
329.5018230121086
 21
32.26025125786759
 31
0.0
  0
LINE
  5
1F7
  8
0
 10
325.5018230121087
 20
32.26025125786757
 30
0.0
 11
325.5018230121087
 21
34.77466134928626
 31
0.0
  0
LINE
  5
1F8
  8
0
 10
325.5018230121087
 20
37.29393125268148
 30
0.0
 11
325.5018230121087
 21
39.8210373207469
 31
0.0
  0
LINE
  5
1F9
  8
0
 10
315.1628603328555
 20
50.16
 30
0.0
 11
312.6357542647901
 21
50.16
 31
0.0
  0
LINE
  5
1FA
  8
0
 10
310.1164843613948
 20
50.16
 30
0.0
 11
307.6020742699761
 21
50.16
 31
0.0
  0
LINE
  5
1FB
  8
0
 10
307.6020742699761
 20
54.15999999999998
 30
0.0
 11
310.1164843613948
 21
54.15999999999998
 31
0.0
  0
LINE
  5
1FC
  8
0
 10
312.6357542647901
 20
54.15999999999998
 30
0.0
 11
315.1628603328555
 21
54.15999999999998
 31
0.0
  0
ARC
  5
1FD
  8
0
 10
48.12182301210854
 20
52.15999999999999
 30
0.0
 40
14.99999999999999
 50
7.662255660766067
 51
82.33774433923405
  0
ARC
  5
1FE
  8
0
 10
48.12182301210854
 20
52.15999999999999
 30
0.0
 40
17.5
 50
277.662255660766
 51
352.3377443392333
  0
ARC
  5
1FF
  8
0
 10
48.12182301210854
 20
52.15999999999999
 30
0.0
 40
14.99999999999999
 50
97.6622556607661
 51
172.3377443392339
  0
ARC
  5
200
  8
0
 10
48.12182301210854
 20
52.15999999999999
 30
0.0
 40
14.99999999999999
 50
187.662255660766
 51
262.337744339234
  0
ARC
  5
201
  8
0
 10
48.12182301210854
 20
52.15999999999999
 30
0.0
 40
19.99999999999998
 50
275.7391704772667
 51
354.2608295227333
  0
ARC
  5
202
  8
0
 10
48.12182301210854
 20
52.15999999999999
 30
0.0
 40
19.99999999999998
 50
185.7391704772667
 51
264.2608295227332
  0
LINE
  5
203
  8
0
 10
46.12182301210854
 20
27.24012841124576
 30
0.0
 11
46.12182301210854
 21
29.74906516898502
 31
0.0
  0
ARC
  5
204
  8
0
 10
48.12182301210854
 20
52.15999999999999
 30
0.0
 40
17.5
 50
277.662255660766
 51
352.3377443392326
  0
ARC
  5
205
  8
0
 10
48.12182301210854
 20
52.15999999999999
 30
0.0
 40
12.5
 50
99.20689622134567
 51
170.793103778654
  0
ARC
  5
206
  8
0
 10
48.12182301210854
 20
52.15999999999999
 30
0.0
 40
20.0
 50
95.7391704772667
 51
174.2608295227332
  0
ARC
  5
207
  8
0
 10
48.12182301210854
 20
52.15999999999999
 30
0.0
 40
22.5
 50
95.09968891421718
 51
174.9003110857826
  0
ARC
  5
208
  8
0
 10
48.12182301210854
 20
52.15999999999999
 30
0.0
 40
25.00000000000005
 50
94.58856573578552
 51
175.4114342642142
  0
ARC
  5
209
  8
0
 10
48.12182301210854
 20
52.15999999999999
 30
0.0
 40
12.5
 50
9.206896221345973
 51
80.79310377865383
  0
ARC
  5
20A
  8
0
 10
48.12182301210854
 20
52.15999999999999
 30
0.0
 40
20.0
 50
5.739170477266783
 51
84.26082952273332
  0
ARC
  5
20B
  8
0
 10
48.12182301210854
 20
52.15999999999999
 30
0.0
 40
22.5
 50
5.099688914217392
 51
84.9003110857825
  0
ARC
  5
20C
  8
0
 10
48.12182301210854
 20
52.15999999999999
 30
0.0
 40
25.00000000000005
 50
4.588565735785825
 51
85.41143426421407
  0
ARC
  5
20D
  8
0
 10
48.12182301210854
 20
52.15999999999999
 30
0.0
 40
12.5
 50
189.2068962213458
 51
260.7931037786541
  0
ARC
  5
20E
  8
0
 10
48.12182301210854
 20
52.15999999999999
 30
0.0
 40
12.5
 50
279.2068962213459
 51
350.7931037786542
  0
ARC
  5
20F
  8
0
 10
48.12182301210854
 20
52.15999999999999
 30
0.0
 40
19.99999999999998
 50
185.7391704772676
 51
264.2608295227344
  0
ARC
  5
210
  8
0
 10
48.12182301210854
 20
52.15999999999999
 30
0.0
 40
19.99999999999998
 50
275.7391704772667
 51
354.2608295227336
  0
ARC
  5
211
  8
0
 10
48.12182301210854
 20
52.15999999999999
 30
0.0
 40
22.5
 50
185.0996889142173
 51
264.9003110857827
  0
ARC
  5
212
  8
0
 10
48.12182301210854
 20
52.15999999999999
 30
0.0
 40
22.5
 50
275.0996889142173
 51
354.9003110857827
  0
ARC
  5
213
  8
0
 10
48.12182301210854
 20
52.15999999999999
 30
0.0
 40
25.00000000000005
 50
184.5885657357858
 51
265.4114342642142
  0
ARC
  5
214
  8
0
 10
48.12182301210854
 20
52.15999999999999
 30
0.0
 40
25.00000000000005
 50
274.5885657357858
 51
355.4114342642142
  0
ARC
  5
215
  8
0
 10
48.12182301210854
 20
52.15999999999999
 30
0.0
 40
15.0
 50
277.6622556607661
 51
352.337744339234
  0
ARC
  5
216
  8
0
 10
48.12182301210854
 20
52.15999999999999
 30
0.0
 40
17.5
 50
96.5624278686338
 51
173.4375721313658
  0
ARC
  5
217
  8
0
 10
48.12182301210854
 20
52.15999999999999
 30
0.0
 40
17.5
 50
352.3377443392326
 51
353.4375721313659
  0
ARC
  5
218
  8
0
 10
48.12182301210854
 20
52.15999999999999
 30
0.0
 40
17.5
 50
6.562427868634143
 51
83.43757213136584
  0
ARC
  5
219
  8
0
 10
48.12182301210854
 20
52.15999999999999
 30
0.0
 40
17.5
 50
186.5624278686341
 51
263.4375721313662
  0
ARC
  5
21A
  8
0
 10
48.12182301210854
 20
52.15999999999999
 30
0.0
 40
17.5
 50
276.5624278686342
 51
277.6622556607659
  0
LINE
  5
21B
  8
0
 10
46.12182301210866
 20
74.57093483101497
 30
0.0
 11
46.12182301210866
 21
77.07987158875427
 31
0.0
  0
LINE
  5
21C
  8
0
 10
50.12182301210855
 20
77.07987158875427
 30
0.0
 11
50.12182301210855
 21
74.57093483101495
 31
0.0
  0
LINE
  5
21D
  8
0
 10
70.53275784312352
 20
54.15999999999999
 30
0.0
 11
73.0416946008628
 21
54.15999999999999
 31
0.0
  0
LINE
  5
21E
  8
0
 10
73.0416946008628
 20
50.16000000000001
 30
0.0
 11
70.53275784312352
 21
50.16000000000001
 31
0.0
  0
LINE
  5
21F
  8
0
 10
50.12182301210855
 20
29.74906516898503
 30
0.0
 11
50.12182301210855
 21
27.24012841124572
 31
0.0
  0
LINE
  5
220
  8
0
 10
46.12182301210854
 20
27.24012841124566
 30
0.0
 11
46.12182301210854
 21
29.74906516898497
 31
0.0
  0
LINE
  5
221
  8
0
 10
25.71088818109357
 20
50.16000000000001
 30
0.0
 11
23.20195142335429
 21
50.16000000000001
 31
0.0
  0
LINE
  5
222
  8
0
 10
23.20195142335429
 20
54.15999999999999
 30
0.0
 11
25.71088818109357
 21
54.15999999999999
 31
0.0
  0
LINE
  5
223
  8
0
 10
46.12182301210866
 20
64.49896267925308
 30
0.0
 11
46.12182301210866
 21
67.02606874731849
 31
0.0
  0
LINE
  5
224
  8
0
 10
46.12182301210866
 20
69.54533865071372
 30
0.0
 11
46.12182301210866
 21
72.0597487421324
 31
0.0
  0
LINE
  5
225
  8
0
 10
50.12182301210855
 20
72.05974874213238
 30
0.0
 11
50.12182301210855
 21
69.5453386507137
 31
0.0
  0
LINE
  5
226
  8
0
 10
50.12182301210855
 20
67.02606874731848
 30
0.0
 11
50.12182301210855
 21
64.49896267925307
 31
0.0
  0
LINE
  5
227
  8
0
 10
60.46078569136159
 20
54.15999999999999
 30
0.0
 11
62.98789175942704
 21
54.15999999999999
 31
0.0
  0
LINE
  5
228
  8
0
 10
65.50716166282228
 20
54.15999999999999
 30
0.0
 11
68.02157175424095
 21
54.15999999999999
 31
0.0
  0
LINE
  5
229
  8
0
 10
68.02157175424095
 20
50.16000000000001
 30
0.0
 11
65.50716166282228
 21
50.16000000000001
 31
0.0
  0
LINE
  5
22A
  8
0
 10
62.98789175942704
 20
50.16000000000001
 30
0.0
 11
60.46078569136159
 21
50.16000000000001
 31
0.0
  0
LINE
  5
22B
  8
0
 10
50.12182301210855
 20
39.82103732074692
 30
0.0
 11
50.12182301210855
 21
37.29393125268149
 31
0.0
  0
LINE
  5
22C
  8
0
 10
50.12182301210855
 20
34.77466134928628
 30
0.0
 11
50.12182301210855
 21
32.26025125786759
 31
0.0
  0
LINE
  5
22D
  8
0
 10
46.12182301210866
 20
32.26025125786758
 30
0.0
 11
46.12182301210866
 21
34.77466134928626
 31
0.0
  0
LINE
  5
22E
  8
0
 10
46.12182301210866
 20
37.29393125268149
 30
0.0
 11
46.12182301210866
 21
39.8210373207469
 31
0.0
  0
LINE
  5
22F
  8
0
 10
35.78286033285549
 20
50.16000000000001
 30
0.0
 11
33.25575426479005
 21
50.16000000000001
 31
0.0
  0
LINE
  5
230
  8
0
 10
30.73648436139481
 20
50.16000000000001
 30
0.0
 11
28.22207426997614
 21
50.16000000000001
 31
0.0
  0
LINE
  5
231
  8
0
 10
28.22207426997614
 20
54.15999999999999
 30
0.0
 11
30.73648436139481
 21
54.15999999999999
 31
0.0
  0
LINE
  5
232
  8
0
 10
33.25575426479005
 20
54.15999999999999
 30
0.0
 11
35.78286033285549
 21
54.15999999999999
 31
0.0
  0
ENDSEC
  0
EOF
